<?xml version="1.0" encoding="UTF-8" standalone="no"?>
<svg
   xmlns:sketch="http://www.bohemiancoding.com/sketch/ns"
   xmlns:dc="http://purl.org/dc/elements/1.1/"
   xmlns:cc="http://creativecommons.org/ns#"
   xmlns:rdf="http://www.w3.org/1999/02/22-rdf-syntax-ns#"
   xmlns:svg="http://www.w3.org/2000/svg"
   xmlns="http://www.w3.org/2000/svg"
   xmlns:sodipodi="http://sodipodi.sourceforge.net/DTD/sodipodi-0.dtd"
   xmlns:inkscape="http://www.inkscape.org/namespaces/inkscape"
   viewBox="0 0 50.430424 53.715233"
   version="1.1"
   x="0px"
   y="0px"
   id="svg2"
   inkscape:version="0.91 r13725"
   sodipodi:docname="weather-forecast.svg"
   width="50.430424"
   height="53.715233">
  <metadata
     id="metadata18">
    <rdf:RDF>
      <cc:Work
         rdf:about="">
        <dc:format>image/svg+xml</dc:format>
        <dc:type
           rdf:resource="http://purl.org/dc/dcmitype/StillImage" />
        <dc:title>frosty_sunny</dc:title>
      </cc:Work>
    </rdf:RDF>
  </metadata>
  <defs
     id="defs16" />
  <sodipodi:namedview
     pagecolor="#ffffff"
     bordercolor="#666666"
     borderopacity="1"
     objecttolerance="10"
     gridtolerance="10"
     guidetolerance="10"
     inkscape:pageopacity="0"
     inkscape:pageshadow="2"
     inkscape:window-width="1173"
     inkscape:window-height="709"
     id="namedview14"
     showgrid="false"
     inkscape:zoom="9.2661581"
     inkscape:cx="25.215212"
     inkscape:cy="27.357615"
     inkscape:window-x="68"
     inkscape:window-y="12"
     inkscape:window-maximized="0"
     inkscape:current-layer="svg2"
     fit-margin-top="0"
     fit-margin-left="0"
     fit-margin-right="0"
     fit-margin-bottom="0" />
  <title
     id="title4">frosty_sunny</title>
  <description>Created with Sketch (http://www.bohemiancoding.com/sketch)</description>
  <g
     sketch:type="MSPage"
     id="g6"
     style="opacity:1;fill:#ffffff;fill-opacity:1;fill-rule:evenodd;stroke:#ffffff;stroke-width:2;stroke-linejoin:round;stroke-miterlimit:4;stroke-dasharray:none;stroke-opacity:1"
     transform="translate(0.62646299,0.28248085)">
    <path
       d="M 17.971922,42.192823 15.700123,40.8812 12.224272,41.812552 c 0,0 -0.739501,0.198148 -0.938867,-0.545895 -0.199367,-0.744042 0.540135,-0.942192 0.540135,-0.942192 l 1.987766,-0.532619 -1.729018,-0.99825 c 0,0 -0.663019,-0.382794 -0.277874,-1.049885 0.385144,-0.667091 1.048164,-0.284296 1.048164,-0.284296 l 1.724954,0.995902 -0.530903,-1.981355 c 0,0 -0.198148,-0.739501 0.545894,-0.938867 0.744043,-0.199366 0.942192,0.540136 0.942192,0.540136 l 0.929634,3.469441 2.358724,1.36181 c 0.357,-0.312521 0.790683,-0.539606 1.269135,-0.649345 l 0,-2.802318 -2.544499,-2.5445 c 0,0 -0.541352,-0.541352 0.0033,-1.08603 0.544678,-0.544677 1.086031,-0.0033 1.086031,-0.0033 l 1.455144,1.455145 0,-1.996498 c 0,0 0,-0.765588 0.770291,-0.765589 0.77029,0 0.77029,0.765589 0.77029,0.765589 l 0,1.991806 1.450452,-1.450453 c 0,0 0.541353,-0.541352 1.086031,0.0033 0.544677,0.544677 0.0033,1.08603 0.0033,1.08603 l -2.539807,2.539808 0,2.868985 c 0.427497,0.135376 0.812488,0.366326 1.129888,0.667764 l 2.493907,-1.439857 0.931352,-3.475851 c 0,0 0.198148,-0.739502 0.942192,-0.540137 0.744043,0.199365 0.545894,0.938867 0.545894,0.938867 l -0.53262,1.987766 1.729018,-0.998249 c 0,0 0.663019,-0.382795 1.048164,0.284296 0.385146,0.66709 -0.277874,1.049885 -0.277874,1.049885 l -1.724954,0.995903 1.981355,0.530903 c 0,0 0.739501,0.198148 0.540136,0.942192 -0.199365,0.744043 -0.938868,0.545894 -0.938868,0.545894 l -3.46944,-0.929635 -2.469032,1.425496 c 0.07282,0.255366 0.111811,0.524994 0.111811,0.803728 0,0.194059 -0.0189,0.383706 -0.05496,0.567197 l 2.408112,1.390324 3.475851,-0.931351 c 0,0 0.739501,-0.198149 0.938869,0.545894 0.199366,0.744044 -0.540137,0.942192 -0.540137,0.942192 l -1.987765,0.53262 1.729018,0.998249 c 0,0 0.663018,0.382795 0.277874,1.049886 -0.385144,0.667091 -1.048164,0.284296 -1.048164,0.284296 l -1.724955,-0.995903 0.530903,1.981356 c 0,0 0.198149,0.739501 -0.545894,0.938867 C 26.39038,50.61107 26.19223,49.871567 26.19223,49.871567 l -0.929634,-3.46944 -2.330461,-1.345493 c -0.345253,0.38624 -0.79157,0.680226 -1.297398,0.840408 l 0,2.594938 2.5445,2.544499 c 0,0 0.541352,0.541352 -0.0033,1.08603 -0.544676,0.544678 -1.08603,0.0033 -1.08603,0.0033 l -1.455145,-1.455144 0,1.996497 c 0,0 0,0.765588 -0.77029,0.765589 -0.770291,10e-7 -0.770291,-0.765589 -0.770291,-0.765589 l 0,-1.991805 -1.450452,1.450452 c 0,0 -0.541352,0.541353 -1.08603,-0.0033 -0.544678,-0.544677 -0.0033,-1.08603 -0.0033,-1.08603 l 2.539807,-2.539807 0,-2.537655 c -0.560249,-0.1285 -1.05911,-0.417898 -1.445351,-0.816962 l -2.178443,1.257725 -0.931352,3.475851 c 0,0 -0.198149,0.739501 -0.942192,0.540136 C 13.852827,50.216402 14.050976,49.4769 14.050976,49.4769 l 0.53262,-1.987766 -1.729018,0.99825 c 0,0 -0.663019,0.382793 -1.048164,-0.284296 -0.385146,-0.667091 0.277874,-1.049886 0.277874,-1.049886 L 13.809242,46.1573 11.827887,45.626397 c 0,0 -0.739501,-0.198149 -0.540136,-0.942192 0.199365,-0.744044 0.938867,-0.545895 0.938867,-0.545895 l 3.469441,0.929635 2.210179,-1.276047 c -0.05254,-0.219368 -0.08037,-0.448345 -0.08037,-0.683821 0,-0.319653 0.05128,-0.62733 0.146054,-0.915254 0,0 -0.09478,0.287924 0,0 z"
       sketch:type="MSShapeGroup"
       id="path8"
       inkscape:connector-curvature="0"
       style="fill:#ffffff;fill-opacity:1;stroke:none;stroke-width:2;stroke-linejoin:round;stroke-miterlimit:4;stroke-dasharray:none;stroke-opacity:1"
       sodipodi:nodetypes="cccscccscccsccccccccccsccccccccccscccscccscccscccscccscccsccccccccccsccccccccccscccscccscccscc" />
  </g>
  <g
     transform="translate(0.62646299,0.28248085)"
     style="opacity:1;fill:#ffffff;fill-opacity:1;fill-rule:evenodd;stroke:#ffffff;stroke-width:2;stroke-linejoin:round;stroke-miterlimit:4;stroke-dasharray:none;stroke-opacity:1"
     id="g4135"
     sketch:type="MSPage">
    <path
       sodipodi:nodetypes="cccscsscscsccccccccscccscccsscccsccccccssccssccssccscccssccscccssccscccssccscccssccscccs"
       style="fill:#ffffff;fill-opacity:1;stroke:#ffffff;stroke-width:2;stroke-linejoin:round;stroke-miterlimit:4;stroke-dasharray:none;stroke-opacity:1"
       inkscape:connector-curvature="0"
       id="path4137"
       sketch:type="MSShapeGroup"
       d="m 8.2180691,39.320662 -1.307422,0 0,-0.109137 C 3.2001834,38.585636 0.37353701,35.34048 0.37353701,31.431304 c 0,-3.101833 1.77940179,-5.785529 4.36809739,-7.074125 -0.2863258,-0.650872 -0.4458313,-1.371433 -0.4458313,-2.130126 0,-2.904599 2.3415932,-5.259572 5.229688,-5.259572 1.5388359,0 2.9233959,0.66928 3.8804289,1.733029 2.022582,-4.141913 6.257322,-6.992601 11.154924,-6.992601 6.789443,0 12.308071,5.479159 12.417895,12.282415 3.048908,1.082157 5.232303,4.005164 5.232303,7.44098 0,3.909176 -2.826647,7.154332 -6.53711,7.780221 l 0,0.109137 -1.307423,0 -0.622819,0 0,-2.466211 0.29777,0 0.438805,0 0.431014,-0.07181 c 2.505596,-0.414192 4.86714,-3.378321 4.86714,-5.894245 0,-2.170978 -1.492374,-4.159427 -3.564359,-4.881376 l -1.703286,-0.593717 -0.02856,-1.783716 c -0.08439,-5.212655 -4.896299,-9.411428 -10.177526,-9.411428 -3.742814,0 -7.094861,2.063262 -8.746218,5.385769 l -1.687707,3.394317 -2.569209,-2.804447 C 10.80303,19.647527 10.11886,19.347463 9.3749708,19.347463 c -1.4319555,0 -2.5964732,1.150246 -2.5964732,2.564652 0,0.362898 0.074,0.711691 0.2207004,1.038684 l 1.0074312,2.246635 -2.2290721,1.089977 c -1.7850749,0.873264 -2.8937688,2.63518 -2.8937688,4.600986 0,2.515923 1.8188294,5.480052 4.3244257,5.894244 l 0.4297164,0.07181 0.4388034,0 0.2373906,0 0,2.466211 z M 42.803345,14.317629 c 0,-4.214055 -3.416166,-7.6302209 -7.630221,-7.6302209 -2.409072,0 -4.557383,1.1164466 -5.955759,2.8601649 0.382852,0.1464587 0.92483,0.3610681 1.54218,0.626946 1.044302,-1.1160946 2.530456,-1.8136107 4.179524,-1.8136107 3.160541,0 6.262807,2.7961797 6.262807,5.9567217 0,2.027112 -1.170089,4.133377 -2.759938,5.150033 0.193854,0.911005 -0.08952,1.173854 0,1.746516 2.578558,-1.224349 4.361407,-3.852246 4.361407,-6.89655 z M 35.056577,0.71751933 C 34.1028,0.71751967 34.1028,1.5245619 34.1028,1.5245619 l 0,3.6316918 c 0,0 0,0.8070431 0.953777,0.8070427 0.953778,0 0.953778,-0.8070427 0.953778,-0.8070427 l 0,-3.6316918 c 0,0 0,-0.80704298 -0.953778,-0.80704257 0,0 0.953778,-4.1e-7 0,0 z M 45.412844,4.108634 C 44.738421,3.4342117 44.167756,4.0048767 44.167756,4.0048767 l -2.567994,2.5679939 c 0,0 -0.570665,0.5706656 0.103758,1.2450879 0.674422,0.6744227 1.245088,0.1037574 1.245088,0.1037574 L 45.516602,5.353722 c 0,0 0.570665,-0.5706656 -0.103758,-1.245088 0,0 0.674423,0.6744224 0,0 z m 3.391115,10.222163 c 0,-0.953778 -0.807043,-0.953778 -0.807043,-0.953778 l -3.631691,0 c 0,0 -0.807043,0 -0.807043,0.953778 0,0.953778 0.807043,0.953778 0.807043,0.953778 l 3.631691,0 c 0,0 0.807043,0 0.807043,-0.953778 0,0 0,0.953778 0,0 z M 44.576094,24.55296 c 0.674423,-0.674423 0.103757,-1.245088 0.103757,-1.245088 l -2.567993,-2.567994 c 0,0 -0.570666,-0.570665 -1.245088,0.103758 -0.674423,0.674422 -0.103758,1.245088 -0.103758,1.245088 l 2.567994,2.567994 c 0,0 0.570666,0.570665 1.245088,-0.103758 0,0 -0.674422,0.674423 0,0 z M 24.968518,4.945384 c -0.674422,0.6744229 -0.103757,1.245088 -0.103757,1.245088 l 2.567994,2.5679939 c 0,0 0.570665,0.5706656 1.245087,-0.1037573 C 29.352265,7.9802859 28.7816,7.4096206 28.7816,7.4096206 L 26.213606,4.8416267 c 0,0 -0.570666,-0.5706655 -1.245088,0.1037573 0,0 0.674422,-0.6744228 0,0 z" />
  </g>
</svg>
