<?xml version="1.0" encoding="UTF-8" standalone="no"?>
<!-- Created with Inkscape (http://www.inkscape.org/) -->

<svg
   xmlns:osb="http://www.openswatchbook.org/uri/2009/osb"
   xmlns:dc="http://purl.org/dc/elements/1.1/"
   xmlns:cc="http://creativecommons.org/ns#"
   xmlns:rdf="http://www.w3.org/1999/02/22-rdf-syntax-ns#"
   xmlns:svg="http://www.w3.org/2000/svg"
   xmlns="http://www.w3.org/2000/svg"
   xmlns:sodipodi="http://sodipodi.sourceforge.net/DTD/sodipodi-0.dtd"
   xmlns:inkscape="http://www.inkscape.org/namespaces/inkscape"
   width="30.208839"
   height="40.907932"
   viewBox="0 0 30.208839 40.907933"
   id="svg2"
   version="1.1"
   inkscape:version="0.91 r13725"
   sodipodi:docname="weather-station.svg">
  <defs
     id="defs4">
    <linearGradient
       id="linearGradient4144"
       osb:paint="solid">
      <stop
         style="stop-color:#c8c8c8;stop-opacity:1;"
         offset="0"
         id="stop4146" />
    </linearGradient>
  </defs>
  <sodipodi:namedview
     id="base"
     pagecolor="#ffffff"
     bordercolor="#666666"
     borderopacity="1.0"
     inkscape:pageopacity="0.0"
     inkscape:pageshadow="2"
     inkscape:zoom="11.417695"
     inkscape:cx="12.8914"
     inkscape:cy="19.7823"
     inkscape:document-units="px"
     inkscape:current-layer="layer2"
     showgrid="false"
     units="px"
     inkscape:snap-bbox="false"
     inkscape:snap-others="true"
     inkscape:snap-intersection-paths="true"
     inkscape:object-paths="true"
     inkscape:window-width="1280"
     inkscape:window-height="751"
     inkscape:window-x="8"
     inkscape:window-y="8"
     inkscape:window-maximized="0"
     fit-margin-top="0"
     fit-margin-left="0"
     fit-margin-right="0"
     fit-margin-bottom="0" />
  <metadata
     id="metadata7">
    <rdf:RDF>
      <cc:Work
         rdf:about="">
        <dc:format>image/svg+xml</dc:format>
        <dc:type
           rdf:resource="http://purl.org/dc/dcmitype/StillImage" />
        <dc:title></dc:title>
      </cc:Work>
    </rdf:RDF>
  </metadata>
  <g
     inkscape:groupmode="layer"
     id="layer2"
     inkscape:label="Halo"
     style="display:inline"
     transform="translate(2.100874,4.9079322)">
    <path
       style="display:inline;opacity:0.98000004;fill:#000000;fill-opacity:1;fill-rule:nonzero;stroke:#ffffff;stroke-width:5;stroke-linejoin:miter;stroke-miterlimit:4;stroke-dasharray:none;stroke-opacity:1"
       d="m 0.5,0.5 0.0859375,4.6269531 -0.0996094,0 0,2.21875 7.9082031,0 0,26.1542969 2.1894528,0 0,-10.701172 c 0.05838,0.0096 0.110715,0.0332 0.171875,0.0332 l 11.648438,0 c 0.606516,0 1.095703,-0.487233 1.095703,-1.09375 0,-0.606516 -0.489187,-1.095703 -1.095703,-1.095703 l -2.404297,0 0,-1.632812 2.59375,0 c 0.502272,0 0.90625,-0.403978 0.90625,-0.90625 0,-0.502272 -0.403978,-0.908204 -0.90625,-0.908204 l -2.59375,0 0,-1.185546 2.59375,0 c 0.502272,0 0.90625,-0.403978 0.90625,-0.90625 0,-0.502272 -0.403978,-0.908204 -0.90625,-0.908204 l -2.59375,0 0,-1.185546 2.59375,0 c 0.502272,0 0.90625,-0.403978 0.90625,-0.90625 0,-0.502272 -0.403978,-0.908204 -0.90625,-0.908204 l -7.470703,0 c -0.502272,0 -0.90625,0.405932 -0.90625,0.908204 0,0.502272 0.403978,0.90625 0.90625,0.90625 l 2.6875,0 0,1.185546 -2.6875,0 c -0.502272,0 -0.90625,0.405932 -0.90625,0.908204 0,0.502272 0.403978,0.90625 0.90625,0.90625 l 2.6875,0 0,1.185546 -2.6875,0 c -0.502272,0 -0.90625,0.405932 -0.90625,0.908204 0,0.502272 0.403978,0.90625 0.90625,0.90625 l 2.6875,0 0,1.632812 -7.054688,0 c -0.06124,0 -0.113426,0.02558 -0.171875,0.03516 l 0,-13.3320309 6.539063,0 0.01758,2.3652344 2.982422,-1.7519531 2.984375,-1.75 L 20.099609,4.5 17.091797,2.7929688 l 0.01563,2.3339843 -11.0332032,0 L 0.5,0.5 Z"
       id="rect4145"
       inkscape:connector-curvature="0" />
  </g>
  <g
     inkscape:label="Calque 1"
     inkscape:groupmode="layer"
     id="layer1"
     transform="translate(2.100874,-1013.4543)"
     style="display:inline">
    <rect
       style="opacity:0.98000004;fill:#000000;fill-opacity:1;fill-rule:nonzero;stroke:#000000;stroke-width:1;stroke-linejoin:miter;stroke-miterlimit:4;stroke-dasharray:none;stroke-opacity:1"
       id="rect4136"
       width="2.1895864"
       height="27.676376"
       x="8.3935833"
       y="-1051.8622"
       ry="0"
       transform="scale(1,-1)" />
    <rect
       transform="matrix(0,1,1,0,0,0)"
       ry="1.094795"
       y="9.661788"
       x="1039.0056"
       height="13.838212"
       width="2.18959"
       id="rect4150"
       style="opacity:0.98000004;fill:#000000;fill-opacity:1;fill-rule:nonzero;stroke:#000000;stroke-width:1;stroke-linejoin:round;stroke-miterlimit:4;stroke-dasharray:none;stroke-opacity:1" />
    <rect
       transform="scale(1,-1)"
       ry="0.5936296"
       y="-1040.5385"
       x="17.810404"
       height="10.257921"
       width="2.1895905"
       id="rect4152"
       style="opacity:0.98000004;fill:#000000;fill-opacity:1;fill-rule:nonzero;stroke:#000000;stroke-width:1;stroke-linejoin:round;stroke-miterlimit:4;stroke-dasharray:none;stroke-opacity:1" />
    <rect
       style="opacity:0.98000004;fill:#000000;fill-opacity:1;fill-rule:nonzero;stroke:#000000;stroke-width:1;stroke-linejoin:round;stroke-miterlimit:4;stroke-dasharray:none;stroke-opacity:1"
       id="rect4162"
       width="1.8132567"
       height="9.2838802"
       x="1035.5585"
       y="14.21612"
       ry="0.90662837"
       transform="matrix(0,1,1,0,0,0)" />
    <rect
       transform="matrix(0,1,1,0,0,0)"
       ry="0.90662837"
       y="14.21612"
       x="1032.5585"
       height="9.2838802"
       width="1.8132567"
       id="rect4164"
       style="opacity:0.98000004;fill:#000000;fill-opacity:1;fill-rule:nonzero;stroke:#000000;stroke-width:1;stroke-linejoin:round;stroke-miterlimit:4;stroke-dasharray:none;stroke-opacity:1" />
    <rect
       style="opacity:0.98000004;fill:#000000;fill-opacity:1;fill-rule:nonzero;stroke:#000000;stroke-width:1;stroke-linejoin:round;stroke-miterlimit:4;stroke-dasharray:none;stroke-opacity:1"
       id="rect4166"
       width="1.8132567"
       height="9.2838802"
       x="1029.5585"
       y="14.21612"
       ry="0.90662837"
       transform="matrix(0,1,1,0,0,0)" />
    <path
       sodipodi:type="star"
       style="opacity:0.98000004;fill:#000000;fill-opacity:1;fill-rule:nonzero;stroke:#000000;stroke-width:1.40512908;stroke-linejoin:round;stroke-miterlimit:4;stroke-dasharray:none;stroke-opacity:1"
       id="path4170"
       sodipodi:sides="3"
       sodipodi:cx="0.61308348"
       sodipodi:cy="1019.9564"
       sodipodi:r1="2.8061719"
       sodipodi:r2="5.6123438"
       sodipodi:arg1="0.16514867"
       sodipodi:arg2="1.2123462"
       inkscape:flatsided="false"
       inkscape:rounded="0"
       inkscape:randomized="0"
       d="m 3.3810744,1020.4178 -0.79905,4.7943 -3.7524614,-3.0892 -3.7524614,-3.0891 4.55151148,-1.7052 4.55151132,-1.7051 z"
       inkscape:transform-center-x="-2.121305"
       inkscape:transform-center-y="-0.16442452"
       transform="matrix(0.45621541,0.54621753,-0.54621753,0.45621541,575.95084,558.94482)" />
    <rect
       style="opacity:0.98000004;fill:#000000;fill-opacity:1;fill-rule:nonzero;stroke:#000000;stroke-width:1;stroke-linejoin:miter;stroke-miterlimit:4;stroke-dasharray:none;stroke-opacity:1"
       id="rect4172"
       width="2.2181442"
       height="18.683849"
       x="1023.4891"
       y="0.48572212"
       ry="0"
       transform="matrix(0,1,1,0,0,0)" />
    <path
       style="fill:#000000;fill-opacity:1;fill-rule:evenodd;stroke:#000000;stroke-width:1;stroke-linecap:butt;stroke-linejoin:round;stroke-miterlimit:4;stroke-dasharray:none;stroke-opacity:1"
       d="m 0.59151162,1023.8595 -0.0915136,-4.9974 6.17880198,5.1296 z"
       id="path4195"
       inkscape:connector-curvature="0"
       sodipodi:nodetypes="cccc" />
  </g>
</svg>
