<svg xmlns="http://www.w3.org/2000/svg" width="30.2" height="40.9">
  <path stroke="#fff" stroke-width="5" d="M2.6 5.4v6.9h7.9v26.1h2.2V27.7h11.8a1 1 0 1 0 0-2.1h-2.4v-1.7h2.6a1 1 0 0 0 0-1.8H22v-1.2h2.6a1 1 0 0 0 0-1.8H22v-1.2h2.6a1 1 0 0 0 0-1.8h-7.5a1 1 0 1 0 0 1.8H20v1.2h-2.7a1 1 0 1 0 0 1.8H20v1.2h-2.7a1 1 0 1 0 0 1.8H20v1.7h-7.2V12.3h6.5v2.3l3-1.7 3-1.8-3-1.7-3-1.7V10h-11L2.6 5.4z"/>
  <g stroke="#000" transform="translate(2.1 -1013.5)">
    <rect width="2.2" height="27.7" x="8.4" y="-1051.9" ry="0" transform="scale(1 -1)"/>
    <rect width="2.2" height="13.8" x="1039" y="9.7" stroke-linejoin="round" ry="1.1" transform="matrix(0 1 1 0 0 0)"/>
    <rect width="2.2" height="10.3" x="17.8" y="-1040.5" stroke-linejoin="round" ry=".6" transform="scale(1 -1)"/>
    <rect width="1.8" height="9.3" x="1035.6" y="14.2" stroke-linejoin="round" ry=".9" transform="matrix(0 1 1 0 0 0)"/>
    <rect width="1.8" height="9.3" x="1032.6" y="14.2" stroke-linejoin="round" ry=".9" transform="matrix(0 1 1 0 0 0)"/>
    <rect width="1.8" height="9.3" x="1029.6" y="14.2" stroke-linejoin="round" ry=".9" transform="matrix(0 1 1 0 0 0)"/>
    <path stroke-linejoin="round" d="M20.1 1026.3l-3 1.8v-6.9l3 1.7 3 1.7z"/>
    <rect width="2.2" height="18.7" x="1023.5" y=".5" ry="0" transform="matrix(0 1 1 0 0 0)"/>
    <path fill-rule="evenodd" stroke-linejoin="round" d="M.6 1023.9l-.1-5 6.2 5z"/>
  </g>
</svg>
