<svg xmlns="http://www.w3.org/2000/svg" width="300" height="200">
  <path opacity=".98000004" fill="#00aeef" d="M82.149872 181.93462h210v12.927192h-210z"/>
  <text font-size="8" y="191.24091" x="187.821" text-anchor="middle" fill="#fff">
    <tspan>Avalanche terrain rating</tspan>
  </text>
  <path d="M82.221006 26.640915c0 .6 46.699994 19.4 86.199994 38.9 39.5 19.5 123.7 30 123.7 30v54.700005s1 14.4-11.3 14.4h-58.6s-8.3-49-43-69.000005c-34.7-20-96.999994-50.8-96.999994-50.8v-18.2z" fill="#fcee23"/>
  <path d="M82.221006 30.040915v-8.9c0-13.4999997 1-16.0999993 13.799996-15.9999993 13.599998.1 157.099998 0 180.799998 0 16.7 0 15.3 4.7999996 15.3 18.5999993v72.5s-80.7-8.3-124.3-27c-40.6-17.5-85.599994-39.2-85.599994-39.2z" fill="#ec2227"/>
  <path d="M82.221006 48.240915V148.64092c0 13.3 1.8 15.9 20.299994 15.9 18.5 0 140.5-.1 140.5-.1-5-21.6-8.5-30.5-19.8-43.3-16.6-18.80001-28.3-28.000005-65-45.500005-12.6-6-75.999994-35.5-75.999994-35.5v8.1z" fill="#12b24b"/>
  <path d="M82.221006 28.640915s44.999994 21.8 85.599994 39.3c43.6 18.8 124.3 27 124.3 27v1.3s-80.7-8.3-124.3-27c-40.6-17.5-85.599994-39.2-85.599994-39.2v-1.4z" fill="#f15b25"/>
  <path d="M82.221006 29.840915s44.999994 21.8 85.599994 39.3c43.6 18.8 124.3 27 124.3 27v1.4s-80.7-8.3-124.3-27c-40.6-17.5-85.599994-39.3-85.599994-39.3v-1.4z" fill="#f58220"/>
  <path d="M82.221006 31.240915s44.999994 21.8 85.599994 39.3c43.6 18.8 124.3 27 124.3 27v1.399999s-80.7-8.299999-124.3-26.999999c-40.6-17.6-85.599994-39.3-85.599994-39.3v-1.4z" fill="#faa71b"/>
  <path d="M82.221006 32.340915s44.999994 21.8 85.599994 39.3c43.6 18.8 124.3 26.999999 124.3 26.999999v1.399996s-80.7-8.299995-124.3-26.999995c-40.6-17.5-85.599994-39.3-85.599994-39.3v-1.4z" fill="#ffcc04"/>
  <path d="M82.221006 44.240915s61.999994 28.2 74.599994 34.1c36.8 17.2 48.4 25.799995 65.1 44.300005 11.5 12.6 14.8 20.6 19.8 41.9h1.5c-5-21.2-8.5-29.9-19.8-42.5-16.6-18.40001-28.3-27.500005-65.1-44.700005-12.7-5.9-76.099994-34.8-76.099994-34.8v1.7z" fill="#51b848"/>
  <path d="M82.221006 42.540915s62.499994 28.6 75.299994 34.6c37.1 17.4 48.8 26.099995 65.7 44.900005 11.6 12.8 14.9 20.9 19.9 42.5h1.5c-5-21.5-8.6-30.4-19.9-43-16.7-18.70001-28.5-27.900005-65.6-45.300005-12.8-6-76.699994-35.3-76.699994-35.3l-.2 1.6z" fill="#8fc640"/>
  <path d="M82.221006 41.240915s63.099994 28.9 75.899994 35c37.4 17.6 49.2 26.399995 66.2 45.400005 11.7 13 15 21.2 20.1 42.9h1.5c-5-21.8-8.7-30.7-20.1-43.5-16.9-18.90001-28.8-28.200005-66.2-45.800005-12.9-6-77.399994-35.7-77.399994-35.7v1.7z" fill="#bed731"/>
  <path d="M82.221006 39.540915s63.599994 29.3 76.499994 35.5c37.7 17.9 49.6 26.799995 66.8 46.000005 11.8 13.1 15.2 21.5 20.2 43.5h1.5c-5.1-22.1-8.7-31.1-20.3-44.1-17-19.10001-29-28.600005-66.7-46.400005-13-6.1-77.999994-36.2-77.999994-36.2v1.7z" fill="#ede80a"/>
  <path d="M82.221006 145.041l209.499994-.00008" opacity=".6" fill="none" stroke="#fff" stroke-dasharray="2,1,2,1,2,1"/>
  <text x="118.66241" y="173.24091" font-size="8" text-anchor="middle" fill="#00aeef">
    Simple
  </text>
  <text x="188.45967" y="173.24091" font-size="8" text-anchor="middle" fill="#00aeef">
    Challenging
  </text>
  <text x="257.63116" y="173.24091" font-size="8" text-anchor="middle" fill="#00aeef">
    Complex
  </text>
  <text x="62.444443" y="147.90033" text-anchor="left" font-size="8" fill="#245eac">
    Low
  </text>
  <text x="40.24913" y="119.82338" text-anchor="left" font-size="8" fill="#245eac">
    Moderate
  </text>
  <text x="25.921005" y="87.82338" text-anchor="left" font-size="8" fill="#245eac">
    Considerable
  </text>
  <text x="60.167099" y="55.24799" text-anchor="left" font-size="8" fill="#245eac">
    High
  </text>
  <text x="44.62413" y="24.000332" text-anchor="left" font-size="8" fill="#245eac">
    Extreme
  </text>
  <path opacity=".98000004" fill="#245eac" d="M7.8501282 163.90938V5.61814h12.927192v158.29124z"/>
  <text transform="rotate(-90)" x="-84.388763" y="16.520756" font-size="8" text-anchor="middle">
    <tspan fill="#fff">Danger rating</tspan>
  </text>
  <path d="M82.221006 116.841l209.699994-.00008M82.221006 84.841L291.921 84.840915M82.221006 53.041L291.921 53.040915M82.221006 21.141L291.921 21.140915m-34.2-15.9999993V164.64092m-69.4-159.5000043V164.64092m-69.6-159.5000043V164.64092" opacity=".6" fill="none" stroke="#fff" stroke-dasharray="2,1,2,1,2,1"/>
</svg>
