<?xml version="1.0" encoding="utf-8"?>
<!-- Generator: Adobe Illustrator 17.1.0, SVG Export Plug-In . SVG Version: 6.00 Build 0)  -->
<!DOCTYPE svg PUBLIC "-//W3C//DTD SVG 1.1//EN" "http://www.w3.org/Graphics/SVG/1.1/DTD/svg11.dtd">
<svg version="1.1" id="Layer_1" xmlns="http://www.w3.org/2000/svg" xmlns:xlink="http://www.w3.org/1999/xlink" x="0px" y="0px"
	 viewBox="255 205 450 150" enable-background="new 255 205 450 150" xml:space="preserve">
<g id="Layer_1_1_">
	<g id="nowcast">
		<g>
			<g>
				<g>
					<path fill="#DDEEFA" d="M705,204.9v50.6H418.8c-15.7,1.2-29.5,12.3-29.5,12.3c-2.5,7.6-34.7,1.4-34.7,1.4l2.5,4.7
						c-8.9-5.8-29.4,0.4-29.4,0.5c0,0.1-26.8,12.9-40.3,0.1c-10.2-9.7-25.1-6.2-32.3-3.9v-65.8H705z"/>
					<path fill="#D1D9A3" d="M704.8,255.6v49.3L421,304.7l-18.6-11.2c-18.8,1.6-29.2,10.1-37.3,16.2c-8.1,6-12.4,5.7-20.8,6.3
						c-8.5,0.6-15.5-2.9-21.5-6.2c-6-3.3-8.3-4.7-20.8-9.7c-12.5-4.9-22.6-3.2-23-3.2s-11,1.6-12.8-1.7c-1.2-2.2-6.8-1.5-11-0.8
						v-23.8c7.2-2.4,22.1-5.9,32.3,3.7c13.6,12.8,40.3,0.1,40.3-0.1c0-0.2,20.6-6.4,29.5-0.6l-2.5-4.7c0,0,32.1,6.3,34.7-1.3
						c0,0,13.9-11.1,29.5-12.3h137.7L704.8,255.6z"/>
					<path fill="#AEBFAC" d="M704.8,304.8v49.6H255v-59.9c4.2-0.7,9.8-1.4,11,0.8c1.8,3.3,12.3,1.7,12.7,1.7s10.6-1.8,23.1,3.2
						c12.5,5,14.8,6.3,20.8,9.7s13.1,6.8,21.6,6.2c8.5-0.6,12.7-0.3,20.8-6.3c8.1-6,18.6-14.6,37.4-16.2l18.6,11.2H704.8z"/>
				</g>
				<g>
					<path fill="#88B1C9" d="M388.7,269c-0.5,0.6-1.1,1.1-2,1.4L369,236.1l-17.2,24.4l6.3,9.8c-0.7-0.1-1.4-0.3-1.9-0.3l-32.7-45.9
						l-34.1,52.4c-0.6-0.5-1.2-1-1.8-1.5l-0.3-0.3l36.2-54.7l26.6,38.4l19.2-26.9L388.7,269z"/>
					<path fill="#C1D831" d="M399.1,294.6c-16.8,2.2-26.4,10.1-34.1,15.7c-8.1,6-12.4,5.7-20.8,6.3c-2.1,0.1-4.1,0.1-6.1-0.3
						l-6.8-42.4c6.3-1.6,21.8-3.1,28.4,1.3l-3.7-5.2c0,0-1-0.2,0,0l19.4,27.3l-2.7-25.4c5.5,0.3,10.8,0.1,13.9-1.4L399.1,294.6z"/>
					<path fill="#88B1C9" d="M375.5,297.3L356.1,270c0.5,0.1,1.1,0.2,1.9,0.3L375.5,297.3z"/>
					<path fill="#6EA469" d="M411.7,318.9l-36.2,3.6L343.7,351l-5.5-34.6c1.9,0.3,4,0.4,6.1,0.3c8.5-0.6,12.7-0.3,20.8-6.3
						c7.7-5.7,17.3-13.5,34.1-15.7L411.7,318.9z"/>
					<path fill="#829D3B" d="M401.8,294.2c-0.9,0.1-1.8,0.2-2.6,0.3l-12.4-24c0.8-0.4,1.6-0.9,2-1.4L401.8,294.2z"/>
					<path fill="#507F4F" d="M415.2,320.3l-38.1,7.7L344.3,354l-46.8-24.6l-42.4-5.5l17-25.9c1.1,0.1,2.4,0,3.4-0.1l-15.1,23.2
						l37.3,4.4l46.1,25.5l31.8-28.5l36.2-3.6l-12.5-24.4c0.8-0.1,1.8-0.3,2.6-0.3L415.2,320.3z"/>
					<path fill="#789226" d="M289.4,276.5l-13.9,21.5c-1,0.1-2.2,0.1-3.4,0.1l15.3-23.2l0.3,0.3C288.2,275.5,288.8,276,289.4,276.5z
						"/>
					<g>
						
							<linearGradient id="SVGID_1_" gradientUnits="userSpaceOnUse" x1="143.6201" y1="109.892" x2="176.3162" y2="109.892" gradientTransform="matrix(1.9181 0 0 1.9181 0 84.2977)">
							<stop  offset="0" style="stop-color:#789226"/>
							<stop  offset="1" style="stop-color:#C1D831"/>
						</linearGradient>
						<path fill="url(#SVGID_1_)" d="M338.2,316.3c-5.8-0.8-11-3.4-15.5-5.9c-6-3.3-8.3-4.7-20.8-9.7c-12.5-4.9-22.6-3.1-23-3.1
							c-0.2,0-1.6,0.2-3.4,0.3l13.9-21.5c14,10.2,38.3-1.3,38.3-1.5c0-0.1,1.4-0.5,3.7-1.1L338.2,316.3z"/>
					</g>
				</g>
			</g>
			
				<linearGradient id="SVGID_2_" gradientUnits="userSpaceOnUse" x1="186.5309" y1="86.3668" x2="197.3405" y2="92.6077" gradientTransform="matrix(1.9181 0 0 1.9181 0 84.2977)">
				<stop  offset="0" style="stop-color:#8ECEF3"/>
				<stop  offset="5.046880e-02" style="stop-color:#A4D8F5"/>
				<stop  offset="0.1309" style="stop-color:#C0E4F8"/>
				<stop  offset="0.2217" style="stop-color:#D7EEFB"/>
				<stop  offset="0.3256" style="stop-color:#E9F6FD"/>
				<stop  offset="0.4503" style="stop-color:#F6FBFE"/>
				<stop  offset="0.617" style="stop-color:#FDFEFF"/>
				<stop  offset="1" style="stop-color:#FFFFFF"/>
			</linearGradient>
			<path fill="url(#SVGID_2_)" d="M372.8,271.9c-5.5-0.3-11.3-1-14.8-1.6l-6.3-9.8l17.3-24.4L372.8,271.9z"/>
			
				<linearGradient id="SVGID_3_" gradientUnits="userSpaceOnUse" x1="186.6577" y1="104.0083" x2="195.7834" y2="104.0083" gradientTransform="matrix(1.9181 0 0 1.9181 0 84.2977)">
				<stop  offset="0" style="stop-color:#789226"/>
				<stop  offset="0.1355" style="stop-color:#90A92A"/>
				<stop  offset="0.3022" style="stop-color:#A6BE2D"/>
				<stop  offset="0.4857" style="stop-color:#B5CD2F"/>
				<stop  offset="0.6972" style="stop-color:#BED531"/>
				<stop  offset="1" style="stop-color:#C1D831"/>
			</linearGradient>
			<path fill="url(#SVGID_3_)" d="M375.5,297.3L358,270.3c3.5,0.5,9.2,1.3,14.8,1.6L375.5,297.3z"/>
			<g>
				<path fill="none" stroke="#000000" stroke-width="0.3144" stroke-miterlimit="10" d="M704.8,255.2"/>
				<path fill="none" d="M255.4,270.7"/>
				<path fill="none" stroke="#000000" stroke-width="0.3144" stroke-miterlimit="10" d="M705.2,304.8"/>
				<path fill="none" d="M255.4,294.6"/>
			</g>
			<g>
				<path fill="#FFFFFF" d="M386.7,270.5c-3.1,1.4-8.5,1.6-13.9,1.4l-3.9-35.7L386.7,270.5z"/>
				
					<linearGradient id="SVGID_4_" gradientUnits="userSpaceOnUse" x1="159.0015" y1="86.1646" x2="174.8465" y2="95.3128" gradientTransform="matrix(1.9181 0 0 1.9181 0 84.2977)">
					<stop  offset="0" style="stop-color:#8ECEF3"/>
					<stop  offset="5.046880e-02" style="stop-color:#A4D8F5"/>
					<stop  offset="0.1309" style="stop-color:#C0E4F8"/>
					<stop  offset="0.2217" style="stop-color:#D7EEFB"/>
					<stop  offset="0.3256" style="stop-color:#E9F6FD"/>
					<stop  offset="0.4503" style="stop-color:#F6FBFE"/>
					<stop  offset="0.617" style="stop-color:#FDFEFF"/>
					<stop  offset="1" style="stop-color:#FFFFFF"/>
				</linearGradient>
				<path fill="url(#SVGID_4_)" d="M331.4,273.9c-2.3,0.5-3.7,1-3.7,1.1c0,0.1-24.3,11.8-38.3,1.5l34.1-52.4L331.4,273.9z"/>
				<path fill="#FFFFFF" d="M359.9,275.1c-6.5-4.3-22.1-2.8-28.4-1.3l-8-49.9l32.7,45.9c-1-0.2,0,0,0,0L359.9,275.1z"/>
				<path fill="none" d="M287.4,274.8"/>
				<path fill="none" d="M255.4,271.2"/>
				
					<linearGradient id="SVGID_5_" gradientUnits="userSpaceOnUse" x1="135.7697" y1="125.0404" x2="179.2007" y2="125.0404" gradientTransform="matrix(1.9181 0 0 1.9181 0 84.2977)">
					<stop  offset="0" style="stop-color:#507F4F"/>
					<stop  offset="1" style="stop-color:#6EA469"/>
				</linearGradient>
				<path fill="url(#SVGID_5_)" d="M343.7,351l-46.1-25.5l-37.3-4.4l15.1-23.2c1.8-0.1,3.2-0.3,3.4-0.3c0.5,0,10.6-1.8,23,3.1
					s14.8,6.3,20.8,9.7c4.5,2.5,9.7,5.1,15.5,5.9L343.7,351z"/>
			</g>
			<text transform="matrix(1 0 0 1 300.8696 265.1904)" font-family="'OpenSans'" font-size="8.4415">Alpine</text>
			<text transform="matrix(1 0 0 1 289.4009 292.1025)" font-family="'OpenSans'" font-size="8.4415">Treeline</text>
			<text transform="matrix(1 0 0 1 268.4595 319.0742)" font-family="'OpenSans'" font-size="8.4415">Bellow Treeline</text>
		</g>
	</g>
	<g id="banner_1_">
		
			<rect id="desc" x="437.3" y="310.7" fill="#FFF100" stroke="#000000" stroke-width="0.3187" stroke-miterlimit="10" width="267.5" height="36.2"/>
		<text transform="matrix(1.0279 0 0 1 492.5684 333.6943)" font-family="'OpenSans-Bold'" font-size="18">2 - Moderate</text>
	</g>
	<g id="banner_3_">
		
			<rect id="desc_2_" x="423.6" y="261.9" fill="#F7931D" stroke="#000000" stroke-width="0.3144" stroke-miterlimit="10" width="281.3" height="36.2"/>
		<text transform="matrix(1 0 0 1 477.061 284.7412)" font-family="'OpenSans-Bold'" font-size="18">3 - Considerable</text>
	</g>
	<g id="extreme_banner">
		<rect x="403.7" y="211.5" stroke="#EE1C24" stroke-width="0.3144" stroke-miterlimit="10" width="301.5" height="36.2"/>
		<text transform="matrix(1 0 0 1 457.5054 234.0146)" fill="#FFFFFF" font-family="'OpenSans-Bold'" font-size="18">5 - Extreme</text>
	</g>
</g>
<g id="zones">
	<g id="btl_1_">
		<g id="base_3_">
			
				<rect x="419.2" y="313.7" transform="matrix(-0.7071 -0.7071 0.7071 -0.7071 508.8716 868.4858)" fill="#FFFFFF" stroke="#000000" stroke-width="0.3144" stroke-miterlimit="10" width="30.3" height="30.3"/>
			<polygon stroke="#000000" stroke-width="0.3144" stroke-miterlimit="10" points="413.5,328.9 434.7,307.7 455.7,328.9 			"/>
		</g>
		<g id="low_3_">
			<path stroke="#000000" stroke-width="0.1805" stroke-miterlimit="10" d="M445.6,331.4l-0.9-0.7c-0.5-0.4-1.3-0.3-1.8,0.2
				l-8.3,8.9c-0.5,0.5-1.3,0.5-1.9,0.1l-1.7-1.7c-0.5-0.5-1.3-0.5-1.8,0l-0.4,0.4c-0.5,0.5-0.5,1.3,0,1.8l3.9,3.9
				c0.5,0.5,1.3,0.5,1.8,0l11.1-11C446.4,332.9,446.3,331.9,445.6,331.4z"/>
			<path fill="#FFFFFF" stroke="#000000" stroke-width="0.2777" stroke-miterlimit="10" d="M449.5,322.4l-1.8,1.9
				c0,0-7.9-8.4-8.8-8.9c-0.9-0.5-4.6,2.8-5.2,3.9c-0.7,1-2.5-0.9-4.2-1.9c-1.8-1-6.8,3.7-6.8,3.7l-8.9,7.7l20.9-21.2L449.5,322.4z"
				/>
		</g>
		<g id="moderate_3_">
			<circle stroke="#000000" stroke-width="0.1717" stroke-miterlimit="10" cx="434.3" cy="342.7" r="1.7"/>
			<path stroke="#000000" stroke-width="0.1515" stroke-miterlimit="10" d="M432.4,330.8h3.9c0.3,0-0.4,7.9-0.4,7.9
				c0,0.3-0.3,0.5-0.5,0.5h-2.1c-0.3,0-0.5-0.3-0.5-0.5C432.7,338.6,432.1,330.8,432.4,330.8z"/>
			<path fill="#FFFFFF" stroke="#000000" stroke-width="0.2929" stroke-miterlimit="10" d="M453.8,321.1c-0.2-0.2-0.4-0.4-0.7-0.5
				c0.5-0.5,0.8-1.3,0.8-2c0-1.8-1.4-3.1-3.2-3.1c-0.8,0-1.4,0.3-2,0.8c-0.2-1.6-1.6-2.8-3.1-2.8c-0.8,0-1.6,0.4-2.2,0.9l-1.7,0.4
				l-6.9-7l-20.8,20.8l8.8-7.4c0,0,4.9-4.7,6.8-3.7c1.8,1,3.6,3,4.2,1.9c0.7-1,4.3-4.3,5.2-3.9c1,0.5,8.8,8.9,8.8,8.9
				s1.5,1.3,1.6,1.3c1.3,1.3,3.3,1.1,4.5-0.1C455,324.4,455,322.3,453.8,321.1z"/>
		</g>
		<g id="considerable_3_">
			<circle stroke="#000000" stroke-width="0.1717" stroke-miterlimit="10" cx="431.3" cy="342.6" r="1.7"/>
			<path stroke="#000000" stroke-width="0.1515" stroke-miterlimit="10" d="M429.4,330.7h3.9c0.3,0-0.4,7.9-0.4,7.9
				c0,0.3-0.3,0.5-0.5,0.5h-2.1c-0.3,0-0.5-0.3-0.5-0.5C429.7,338.5,429.1,330.7,429.4,330.7z"/>
			<circle stroke="#000000" stroke-width="0.1717" stroke-miterlimit="10" cx="437.3" cy="342.6" r="1.7"/>
			<path stroke="#000000" stroke-width="0.1515" stroke-miterlimit="10" d="M435.4,330.7h3.9c0.3,0-0.4,7.9-0.4,7.9
				c0,0.3-0.3,0.5-0.5,0.5h-2.1c-0.3,0-0.5-0.3-0.5-0.5C435.7,338.5,435.1,330.7,435.4,330.7z"/>
			<path fill="#FFFFFF" stroke="#000000" stroke-width="0.3144" stroke-miterlimit="10" d="M464.6,324.5c0,1.9-1.5,4.1-3.4,4.1
				c-0.1,0-10.2,0.1-10.2,0.1l0,0l-4.7-4.7c-1.1-1.1-7.8-7.7-8.7-8.1c-0.9-0.5-3.4,2.2-4.1,3.3c-0.7,1-2.5-0.9-4.2-1.9
				c-1.8-1-6.8,3.6-6.8,3.6l-8.8,7.7l20.8-21l13.9,13.9c0,0,0-0.1,0.1-0.1c1.3-1.3,3.3-1.4,4.7-0.3c0.1-0.8,0.4-1.6,1-2.2
				c1.4-1.4,3.6-1.4,5,0c0.6,0.6,1,1.4,1,2.2c0.3-0.1,0.6-0.1,0.9-0.1C463.1,321,464.6,322.6,464.6,324.5z"/>
			<line fill="none" stroke="#000000" stroke-width="0.3144" stroke-miterlimit="10" x1="438.4" y1="314.1" x2="449.6" y2="325"/>
			<path fill="none" stroke="#000000" stroke-width="0.2777" stroke-miterlimit="10" d="M451.5,324c0,0,3.9-1.3,4.3,2.4"/>
		</g>
		<g id="high-extreme_3_">
			<path stroke="#000000" stroke-width="0.1168" stroke-miterlimit="10" d="M440.3,340l-3.4-3.4c-0.1-0.1-0.1-0.4,0-0.5l3.1-3.1
				c0.1-0.1,0.1-0.4,0-0.5l-2-2c-0.1-0.1-0.4-0.1-0.5,0l-3.1,3.1c-0.1,0.1-0.4,0.1-0.5,0l-3.4-3.4c-0.1-0.1-0.4-0.1-0.5,0l-2,2
				c-0.1,0.1-0.1,0.4,0,0.5l3.4,3.4c0.1,0.1,0.1,0.4,0,0.5l-3.7,3.7c-0.1,0.1-0.1,0.4,0,0.5l2,2c0.1,0.1,0.4,0.1,0.5,0l3.7-3.7
				c0.1-0.1,0.4-0.1,0.5,0l3.4,3.4c0.1,0.1,0.4,0.1,0.5,0l2-2C440.4,340.4,440.4,340.1,440.3,340z"/>
			<path fill="#FFFFFF" stroke="#000000" stroke-width="0.3144" stroke-miterlimit="10" d="M470.7,325.2c0,1.4-0.7,2.6-1.8,3.4
				l-0.5,0.3c-0.3,0.2-7.8,0.1-13.7,0c-0.4,0-0.8,0-1.2,0c-0.3,0-0.4,0-0.7,0c-3.1-0.1-5.5-0.1-5.5-0.1s-10.6-10.6-11.4-11
				c-0.9-0.5-1.6,0.5-2.2,1.5c-0.7,1-2.5-0.9-4.2-1.9c-1.8-1-6.8,3.7-6.8,3.7l-9.4,7.9l21.4-21.7l13.7,14c0.5-0.4,1.1-0.5,1.8-0.5
				c0.7,0,1.3,0.2,1.8,0.5c0.6-1.6,2.1-2.7,3.9-2.7c0.5,0,1.1,0.1,1.6,0.3c0.6-1.6,2.1-2.7,3.9-2.7c1.8,0,3.4,1.2,3.9,2.8
				c0.2-0.1,0.4-0.1,0.7-0.1c1.6,0,3,1.2,3.1,2.8C470,322.4,470.7,323.7,470.7,325.2z"/>
			<line fill="none" stroke="#000000" stroke-width="0.3144" stroke-miterlimit="10" x1="437.4" y1="316.2" x2="447.6" y2="326.3"/>
			<line fill="none" stroke="#000000" stroke-width="0.3144" stroke-miterlimit="10" x1="439" y1="315.3" x2="450.2" y2="326.3"/>
			<path fill="none" stroke="#000000" stroke-width="0.2777" stroke-miterlimit="10" d="M455.8,321.7c0,0,5.8-0.9,4.3,4.9"/>
			<path fill="none" stroke="#000000" stroke-width="0.2777" stroke-miterlimit="10" d="M452.1,323.9c0,0,3.9-1.3,4.3,2.4"/>
		</g>
	</g>
	<g id="tln_1_">
		<g id="base_2_">
			
				<rect x="407.9" y="264.9" transform="matrix(-0.7071 -0.7071 0.7071 -0.7071 524.1465 777.1459)" fill="#FFFFFF" stroke="#000000" stroke-width="0.3144" stroke-miterlimit="10" width="30.3" height="30.3"/>
			<polygon stroke="#000000" stroke-width="0.3144" stroke-miterlimit="10" points="401.9,280 423.1,258.9 444.1,280 			"/>
		</g>
		<g id="low_2_">
			<path stroke="#000000" stroke-width="0.1805" stroke-miterlimit="10" d="M434.1,282.6l-0.9-0.7c-0.5-0.4-1.3-0.3-1.8,0.2
				l-8.3,8.9c-0.5,0.5-1.3,0.5-1.9,0.1l-1.7-1.7c-0.5-0.5-1.3-0.5-1.8,0l-0.4,0.4c-0.5,0.5-0.5,1.3,0,1.8l3.9,3.9
				c0.5,0.5,1.3,0.5,1.8,0l11.1-11C434.8,284,434.7,283.1,434.1,282.6z"/>
			<path fill="#FFFFFF" stroke="#000000" stroke-width="0.2777" stroke-miterlimit="10" d="M437.9,273.6l-1.8,1.9
				c0,0-7.9-8.4-8.8-8.9c-0.9-0.5-4.6,2.8-5.2,3.9s-2.5-0.9-4.2-1.9c-1.8-1-6.8,3.7-6.8,3.7l-8.9,7.7l20.9-21.2L437.9,273.6z"/>
		</g>
		<g id="moderate_2_">
			<circle stroke="#000000" stroke-width="0.1717" stroke-miterlimit="10" cx="422.7" cy="293.8" r="1.7"/>
			<path stroke="#000000" stroke-width="0.1515" stroke-miterlimit="10" d="M420.8,282h3.9c0.3,0-0.4,7.9-0.4,7.9
				c0,0.3-0.3,0.5-0.5,0.5h-2.1c-0.3,0-0.5-0.3-0.5-0.5C421.2,289.8,420.6,282,420.8,282z"/>
			<path fill="#FFFFFF" stroke="#000000" stroke-width="0.2929" stroke-miterlimit="10" d="M442.2,272.3c-0.2-0.2-0.4-0.4-0.7-0.5
				c0.5-0.5,0.8-1.3,0.8-2c0-1.8-1.4-3.1-3.2-3.1c-0.8,0-1.4,0.3-2,0.8c-0.2-1.6-1.6-2.8-3.1-2.8c-0.8,0-1.6,0.4-2.2,0.9l-1.7,0.4
				l-6.9-7l-20.8,20.8l8.8-7.4c0,0,4.9-4.7,6.8-3.7c1.8,1,3.6,3,4.2,1.9s4.3-4.3,5.2-3.9c1,0.5,8.8,8.9,8.8,8.9s1.5,1.3,1.6,1.3
				c1.3,1.3,3.3,1.1,4.5-0.1C443.4,275.5,443.4,273.5,442.2,272.3z"/>
		</g>
		<g id="considerable_2_">
			<circle stroke="#000000" stroke-width="0.1717" stroke-miterlimit="10" cx="419.7" cy="293.7" r="1.7"/>
			<path stroke="#000000" stroke-width="0.1515" stroke-miterlimit="10" d="M417.8,281.9h3.9c0.3,0-0.4,7.9-0.4,7.9
				c0,0.3-0.3,0.5-0.5,0.5h-2.1c-0.3,0-0.5-0.3-0.5-0.5C418.1,289.7,417.5,281.9,417.8,281.9z"/>
			<circle stroke="#000000" stroke-width="0.1717" stroke-miterlimit="10" cx="425.7" cy="293.7" r="1.7"/>
			<path stroke="#000000" stroke-width="0.1515" stroke-miterlimit="10" d="M423.8,281.9h3.9c0.3,0-0.4,7.9-0.4,7.9
				c0,0.3-0.3,0.5-0.5,0.5h-2.1c-0.3,0-0.5-0.3-0.5-0.5C424.2,289.7,423.6,281.9,423.8,281.9z"/>
			<path fill="#FFFFFF" stroke="#000000" stroke-width="0.3144" stroke-miterlimit="10" d="M453.1,275.7c0,1.9-1.5,4.1-3.4,4.1
				c-0.1,0-10.2,0.1-10.2,0.1l0,0l-4.7-4.8c-1.1-1.1-7.8-7.7-8.7-8.1c-0.9-0.5-3.4,2.2-4.1,3.3c-0.7,1-2.5-0.9-4.2-1.9
				c-1.8-1-6.8,3.7-6.8,3.7l-8.8,7.7l20.8-21l13.9,13.9c0,0,0-0.1,0.1-0.1c1.3-1.3,3.3-1.4,4.7-0.3c0.1-0.8,0.4-1.6,1-2.2
				c1.4-1.4,3.6-1.4,5,0c0.6,0.6,1,1.4,1,2.2c0.3-0.1,0.6-0.1,0.9-0.1C451.5,272.2,453.1,273.8,453.1,275.7z"/>
			<line fill="none" stroke="#000000" stroke-width="0.3144" stroke-miterlimit="10" x1="426.8" y1="265.2" x2="438" y2="276.1"/>
			<path fill="none" stroke="#000000" stroke-width="0.2777" stroke-miterlimit="10" d="M439.9,275.2c0,0,3.9-1.3,4.3,2.4"/>
		</g>
		<g id="high-extreme_2_">
			<path stroke="#000000" stroke-width="0.1168" stroke-miterlimit="10" d="M428.7,291.2l-3.4-3.4c-0.1-0.1-0.1-0.4,0-0.5l3.1-3.1
				c0.1-0.1,0.1-0.4,0-0.5l-2-2c-0.1-0.1-0.4-0.1-0.5,0l-3.1,3.1c-0.1,0.1-0.4,0.1-0.5,0l-3.4-3.4c-0.1-0.1-0.4-0.1-0.5,0l-2,2
				c-0.1,0.1-0.1,0.4,0,0.5l3.4,3.4c0.1,0.1,0.1,0.4,0,0.5l-3.7,3.7c-0.1,0.1-0.1,0.4,0,0.5l2,2c0.1,0.1,0.4,0.1,0.5,0l3.6-3.7
				c0.1-0.1,0.4-0.1,0.5,0l3.4,3.4c0.1,0.1,0.4,0.1,0.5,0l2-2C428.9,291.5,428.9,291.3,428.7,291.2z"/>
			<path fill="#FFFFFF" stroke="#000000" stroke-width="0.3144" stroke-miterlimit="10" d="M459.1,276.4c0,1.4-0.7,2.6-1.8,3.4
				l-0.5,0.3c-0.3,0.2-7.8,0.1-13.7,0c-0.4,0-0.8,0-1.2,0c-0.3,0-0.4,0-0.7,0c-3.1-0.1-5.5-0.1-5.5-0.1s-10.6-10.6-11.4-11
				c-0.9-0.5-1.6,0.5-2.2,1.5s-2.5-0.9-4.2-1.9c-1.8-1-6.8,3.7-6.8,3.7l-9.4,7.9l21.4-21.7l13.7,14c0.5-0.4,1.1-0.5,1.8-0.5
				c0.7,0,1.3,0.2,1.8,0.5c0.6-1.6,2.1-2.7,3.9-2.7c0.5,0,1.1,0.1,1.6,0.3c0.6-1.6,2.1-2.7,3.9-2.7c1.8,0,3.4,1.2,3.9,2.8
				c0.2-0.1,0.4-0.1,0.7-0.1c1.6,0,3,1.2,3.1,2.8C458.4,273.6,459.1,274.9,459.1,276.4z"/>
			<line fill="none" stroke="#000000" stroke-width="0.3144" stroke-miterlimit="10" x1="425.8" y1="267.4" x2="436.1" y2="277.4"/>
			<line fill="none" stroke="#000000" stroke-width="0.3144" stroke-miterlimit="10" x1="427.4" y1="266.5" x2="438.6" y2="277.4"/>
			<path fill="none" stroke="#000000" stroke-width="0.2777" stroke-miterlimit="10" d="M444.3,272.8c0,0,5.8-0.9,4.3,4.9"/>
			<path fill="none" stroke="#000000" stroke-width="0.2777" stroke-miterlimit="10" d="M440.5,275.1c0,0,3.9-1.3,4.3,2.4"/>
		</g>
	</g>
	<g id="alp">
		<g id="base_1_">
			
				<rect x="388.5" y="214.9" transform="matrix(-0.7071 -0.7071 0.7071 -0.7071 526.4037 678.0167)" fill="#FFFFFF" stroke="#000000" stroke-width="0.3144" stroke-miterlimit="10" width="30.3" height="30.3"/>
			<polygon stroke="#000000" stroke-width="0.3144" stroke-miterlimit="10" points="382.5,230 403.7,208.9 424.7,230 			"/>
		</g>
		<g id="low_1_">
			<path stroke="#000000" stroke-width="0.1805" stroke-miterlimit="10" d="M414.6,232.5l-0.9-0.7c-0.5-0.4-1.3-0.3-1.8,0.2
				l-8.2,8.9c-0.5,0.5-1.3,0.5-1.9,0.1l-1.7-1.7c-0.5-0.5-1.3-0.5-1.8,0l-0.4,0.4c-0.5,0.5-0.5,1.3,0,1.8l3.9,3.9
				c0.5,0.5,1.3,0.5,1.8,0l11.1-11C415.4,234,415.3,233,414.6,232.5z"/>
			<path fill="#FFFFFF" stroke="#000000" stroke-width="0.2777" stroke-miterlimit="10" d="M418.5,223.5l-1.8,1.9
				c0,0-7.9-8.4-8.8-8.9c-0.9-0.5-4.6,2.8-5.2,3.9c-0.7,1-2.5-0.9-4.2-1.9c-1.8-1-6.8,3.7-6.8,3.7l-8.9,7.7l20.9-21.2L418.5,223.5z"
				/>
		</g>
		<g id="moderate_1_">
			<circle stroke="#000000" stroke-width="0.1717" stroke-miterlimit="10" cx="403.3" cy="243.8" r="1.7"/>
			<path stroke="#000000" stroke-width="0.1515" stroke-miterlimit="10" d="M401.4,231.9h3.9c0.3,0-0.4,7.9-0.4,7.9
				c0,0.3-0.3,0.5-0.5,0.5h-2.1c-0.3,0-0.5-0.3-0.5-0.5C401.7,239.8,401.1,231.9,401.4,231.9z"/>
			<path fill="#FFFFFF" stroke="#000000" stroke-width="0.2929" stroke-miterlimit="10" d="M422.8,222.2c-0.2-0.2-0.4-0.4-0.7-0.5
				c0.5-0.5,0.8-1.3,0.8-2c0-1.8-1.4-3.1-3.2-3.1c-0.8,0-1.4,0.3-2,0.8c-0.2-1.6-1.6-2.8-3.1-2.8c-0.8,0-1.6,0.4-2.2,0.9l-1.7,0.3
				l-6.9-7l-20.8,20.8l8.8-7.4c0,0,4.9-4.7,6.8-3.7c1.8,1,3.6,3,4.2,1.9c0.7-1,4.3-4.3,5.2-3.9c1,0.5,8.8,8.9,8.8,8.9
				s1.5,1.3,1.6,1.3c1.3,1.3,3.3,1.1,4.5-0.1C424,225.5,424,223.5,422.8,222.2z"/>
		</g>
		<g id="considerable_1_">
			<circle stroke="#000000" stroke-width="0.1717" stroke-miterlimit="10" cx="400.3" cy="243.7" r="1.7"/>
			<path stroke="#000000" stroke-width="0.1515" stroke-miterlimit="10" d="M398.4,231.8h3.9c0.3,0-0.4,7.9-0.4,7.9
				c0,0.3-0.3,0.5-0.5,0.5h-2.1c-0.3,0-0.5-0.3-0.5-0.5C398.7,239.6,398.1,231.8,398.4,231.8z"/>
			<circle stroke="#000000" stroke-width="0.1717" stroke-miterlimit="10" cx="406.3" cy="243.7" r="1.7"/>
			<path stroke="#000000" stroke-width="0.1515" stroke-miterlimit="10" d="M404.4,231.8h3.9c0.3,0-0.4,7.9-0.4,7.9
				c0,0.3-0.3,0.5-0.5,0.5h-2.1c-0.3,0-0.5-0.3-0.5-0.5C404.7,239.6,404.1,231.8,404.4,231.8z"/>
			<path fill="#FFFFFF" stroke="#000000" stroke-width="0.3144" stroke-miterlimit="10" d="M433.6,225.7c0,1.9-1.5,4.1-3.4,4.1
				c-0.1,0-10.2,0.1-10.2,0.1l0,0l-4.7-4.8c-1.1-1.1-7.8-7.7-8.7-8.1c-0.9-0.5-3.4,2.2-4.1,3.3c-0.7,1-2.5-0.9-4.2-1.9
				c-1.8-1-6.8,3.7-6.8,3.7l-8.8,7.7l20.8-21l13.9,13.9c0,0,0-0.1,0.1-0.1c1.3-1.3,3.3-1.4,4.7-0.3c0.1-0.8,0.4-1.6,1-2.2
				c1.4-1.4,3.6-1.4,5,0c0.6,0.6,1,1.4,1,2.2c0.3-0.1,0.6-0.1,0.9-0.1C432.1,222.2,433.6,223.7,433.6,225.7z"/>
			<line fill="none" stroke="#000000" stroke-width="0.3144" stroke-miterlimit="10" x1="407.4" y1="215.2" x2="418.6" y2="226.1"/>
			<path fill="none" stroke="#000000" stroke-width="0.2777" stroke-miterlimit="10" d="M420.5,225.2c0,0,3.9-1.3,4.3,2.4"/>
		</g>
		<g id="high-extreme_1_">
			<path stroke="#000000" stroke-width="0.1168" stroke-miterlimit="10" d="M409.3,241.2l-3.4-3.4c-0.1-0.1-0.1-0.4,0-0.5l3.1-3.1
				c0.1-0.1,0.1-0.4,0-0.5l-2-2c-0.1-0.1-0.4-0.1-0.5,0l-3.1,3c-0.1,0.1-0.4,0.1-0.5,0l-3.4-3.4c-0.1-0.1-0.4-0.1-0.5,0l-2,2
				c-0.1,0.1-0.1,0.4,0,0.5l3.4,3.4c0.1,0.1,0.1,0.4,0,0.5l-3.7,3.7c-0.1,0.1-0.1,0.4,0,0.5l2,2c0.1,0.1,0.4,0.1,0.5,0l3.7-3.7
				c0.1-0.1,0.4-0.1,0.5,0l3.4,3.4c0.1,0.1,0.4,0.1,0.5,0l2-2C409.4,241.5,409.4,241.3,409.3,241.2z"/>
			<path fill="#FFFFFF" stroke="#000000" stroke-width="0.3144" stroke-miterlimit="10" d="M439.7,226.3c0,1.4-0.7,2.6-1.8,3.4
				l-0.5,0.3c-0.3,0.2-7.8,0.1-13.7,0c-0.4,0-0.8,0-1.2,0c-0.3,0-0.4,0-0.7,0c-3.1-0.1-5.5-0.1-5.5-0.1s-10.6-10.6-11.5-11
				c-0.9-0.5-1.6,0.5-2.2,1.5c-0.7,1-2.5-0.9-4.2-1.9c-1.8-1-6.8,3.7-6.8,3.7l-9.4,7.9l21.4-21.7l13.7,14c0.5-0.4,1.1-0.5,1.8-0.5
				s1.3,0.2,1.8,0.5c0.6-1.6,2.1-2.7,3.9-2.7c0.5,0,1.1,0.1,1.6,0.3c0.6-1.6,2.1-2.7,3.9-2.7c1.8,0,3.4,1.2,3.9,2.8
				c0.2-0.1,0.4-0.1,0.7-0.1c1.6,0,3,1.2,3.1,2.8C439,223.6,439.7,224.9,439.7,226.3z"/>
			<line fill="none" stroke="#000000" stroke-width="0.3144" stroke-miterlimit="10" x1="406.4" y1="217.3" x2="416.6" y2="227.4"/>
			<line fill="none" stroke="#000000" stroke-width="0.3144" stroke-miterlimit="10" x1="408" y1="216.5" x2="419.2" y2="227.4"/>
			<path fill="none" stroke="#000000" stroke-width="0.2777" stroke-miterlimit="10" d="M424.8,222.8c0,0,5.8-0.9,4.3,4.9"/>
			<path fill="none" stroke="#000000" stroke-width="0.2777" stroke-miterlimit="10" d="M421.1,225.1c0,0,3.9-1.3,4.3,2.4"/>
		</g>
	</g>
</g>
</svg>
