<svg version="1.1" xmlns="http://www.w3.org/2000/svg" height="21" width="21" viewBox="0 0 26 26">
	<line stroke="#FFFFFF" stroke-linecap="round" stroke-width="4px" x1="12.23" y1="0.78" x2="12.23" y2="23.12"/>
	<line stroke="#FFFFFF" stroke-linecap="round" stroke-width="4px" x1="15.9" y1="2.33" x2="12.23" y2="6.03"/>
	<line stroke="#FFFFFF" stroke-linecap="round" stroke-width="4px" x1="8.61" y1="2.36" x2="12.23" y2="6.03"/>
	<line stroke="#FFFFFF" stroke-linecap="round" stroke-width="4px" x1="21.91" y1="6.26" x2="12.23" y2="12.08"/>
	<line stroke="#FFFFFF" stroke-linecap="round" stroke-width="4px" x1="18.66" y1="4" x2="17.41" y2="8.96"/>
	<line stroke="#FFFFFF" stroke-linecap="round" stroke-width="4px" x1="22.31" y1="10.27" x2="17.41" y2="8.96"/>
	<line stroke="#FFFFFF" stroke-linecap="round" stroke-width="4px" x1="21.88" y1="17.58" x2="12.23" y2="11.95"/>
	<line stroke="#FFFFFF" stroke-linecap="round" stroke-width="4px" x1="22.28" y1="13.49" x2="17.28" y2="14.9"/>
	<line stroke="#FFFFFF" stroke-linecap="round" stroke-width="4px" x1="18.66" y1="19.87" x2="17.28" y2="14.9"/>
	<line stroke="#FFFFFF" stroke-linecap="round" stroke-width="4px" x1="15.9" y1="21.48" x2="12.23" y2="17.75"/>
	<line stroke="#FFFFFF" stroke-linecap="round" stroke-width="4px" x1="8.61" y1="21.48" x2="12.23" y2="17.75"/>
	<line stroke="#FFFFFF" stroke-linecap="round" stroke-width="4px" x1="2.51" y1="17.58" x2="12.23" y2="11.95"/>
	<line stroke="#FFFFFF" stroke-linecap="round" stroke-width="4px" x1="5.79" y1="19.79" x2="7.12" y2="14.91"/>
	<line stroke="#FFFFFF" stroke-linecap="round" stroke-width="4px" x1="2.09" y1="13.43" x2="7.12" y2="14.91"/>
	<line stroke="#FFFFFF" stroke-linecap="round" stroke-width="4px" x1="2.6" y1="6.23" x2="12.23" y2="12.08"/>
	<line stroke="#FFFFFF" stroke-linecap="round" stroke-width="4px" x1="5.7" y1="4.03" x2="7.1" y2="8.96"/>
	<line stroke="#FFFFFF" stroke-linecap="round" stroke-width="4px" x1="2.17" y1="10.3" x2="7.1" y2="8.96"/>
	<line stroke="#000000" stroke-linecap="round" stroke-width="2px"  x1="12.23" y1="0.78" x2="12.23" y2="23.12"/>
	<line stroke="#000000" stroke-linecap="round" stroke-width="2px" x1="15.9" y1="2.33" x2="12.23" y2="6.03"/>
	<line stroke="#000000" stroke-linecap="round" stroke-width="2px" x1="8.61" y1="2.36" x2="12.23" y2="6.03"/>
	<line stroke="#000000" stroke-linecap="round" stroke-width="2px" x1="21.91" y1="6.26" x2="12.23" y2="12.08"/>
	<line stroke="#000000" stroke-linecap="round" stroke-width="2px" x1="18.66" y1="4" x2="17.41" y2="8.96"/>
	<line stroke="#000000" stroke-linecap="round" stroke-width="2px" x1="22.31" y1="10.27" x2="17.41" y2="8.96"/>
	<line stroke="#000000" stroke-linecap="round" stroke-width="2px" x1="21.88" y1="17.58" x2="12.23" y2="11.95"/>
	<line stroke="#000000" stroke-linecap="round" stroke-width="2px" x1="22.28" y1="13.49" x2="17.28" y2="14.9"/>
	<line stroke="#000000" stroke-linecap="round" stroke-width="2px" x1="18.66" y1="19.87" x2="17.28" y2="14.9"/>
	<line stroke="#000000" stroke-linecap="round" stroke-width="2px" x1="15.9" y1="21.48" x2="12.23" y2="17.75"/>
	<line stroke="#000000" stroke-linecap="round" stroke-width="2px" x1="8.61" y1="21.48" x2="12.23" y2="17.75"/>
	<line stroke="#000000" stroke-linecap="round" stroke-width="2px" x1="2.51" y1="17.58" x2="12.23" y2="11.95"/>
	<line stroke="#000000" stroke-linecap="round" stroke-width="2px" x1="5.79" y1="19.79" x2="7.12" y2="14.91"/>
	<line stroke="#000000" stroke-linecap="round" stroke-width="2px" x1="2.09" y1="13.43" x2="7.12" y2="14.91"/>
	<line stroke="#000000" stroke-linecap="round" stroke-width="2px" x1="2.6" y1="6.23" x2="12.23" y2="12.08"/>
	<line stroke="#000000" stroke-linecap="round" stroke-width="2px" x1="5.7" y1="4.03" x2="7.1" y2="8.96"/>
	<line stroke="#000000" stroke-linecap="round" stroke-width="2px" x1="2.17" y1="10.3" x2="7.1" y2="8.96"/>
</svg>
