<?xml version="1.0" encoding="UTF-8" standalone="no"?>
<!-- Generator: Adobe Illustrator 18.0.0, SVG Export Plug-In . SVG Version: 6.00 Build 0)  -->

<svg
   xmlns:dc="http://purl.org/dc/elements/1.1/"
   xmlns:cc="http://creativecommons.org/ns#"
   xmlns:rdf="http://www.w3.org/1999/02/22-rdf-syntax-ns#"
   xmlns:svg="http://www.w3.org/2000/svg"
   xmlns="http://www.w3.org/2000/svg"
   xmlns:xlink="http://www.w3.org/1999/xlink"
   xmlns:sodipodi="http://sodipodi.sourceforge.net/DTD/sodipodi-0.dtd"
   xmlns:inkscape="http://www.inkscape.org/namespaces/inkscape"
   version="1.1"
   id="Layer_1"
   x="0px"
   y="0px"
   viewBox="0 0 612 792"
   enable-background="new 0 0 612 792"
   xml:space="preserve"
   inkscape:version="0.91 r13725"
   sodipodi:docname="danger-rating-icon-NoRo.svg"><metadata
     id="metadata3797"><rdf:RDF><cc:Work
         rdf:about=""><dc:format>image/svg+xml</dc:format><dc:type
           rdf:resource="http://purl.org/dc/dcmitype/StillImage" /><dc:title /></cc:Work></rdf:RDF></metadata><defs
     id="defs3795"><linearGradient
       inkscape:collect="always"
       id="linearGradient4229"><stop
         style="stop-color:#ffffff;stop-opacity:1;"
         offset="0"
         id="stop4231" /><stop
         style="stop-color:#ffffff;stop-opacity:0;"
         offset="1"
         id="stop4233" /></linearGradient><linearGradient
       inkscape:collect="always"
       xlink:href="#linearGradient4229"
       id="linearGradient4235"
       x1="-91.394775"
       y1="383.5614"
       x2="740.81714"
       y2="383.5614"
       gradientUnits="userSpaceOnUse" /></defs><sodipodi:namedview
     pagecolor="#ffffff"
     bordercolor="#666666"
     borderopacity="1"
     objecttolerance="10"
     gridtolerance="10"
     guidetolerance="10"
     inkscape:pageopacity="0"
     inkscape:pageshadow="2"
     inkscape:window-width="1680"
     inkscape:window-height="991"
     id="namedview3793"
     showgrid="false"
     inkscape:zoom="0.54844684"
     inkscape:cx="-206.60026"
     inkscape:cy="534.50652"
     inkscape:window-x="1362"
     inkscape:window-y="30"
     inkscape:window-maximized="1"
     inkscape:current-layer="Layer_1" /><g
     id="g3769"><g
       opacity="0.3"
       id="g3771"><path
         fill="#333333"
         d="M304.8,89.3C140.9,89.3,8,222.2,8,386.2S140.9,683,304.8,683s296.8-132.9,296.8-296.8    S468.8,89.3,304.8,89.3z M476.5,557.9v40.3c-99.8,81.1-243.5,81.1-343.5,0v-40.3H92.8c-81.3-100.1-81.1-244.1,0.4-344h40.4v-40.3    c99.8-80.6,243.1-80.3,342.7,0.6v40.3h40.3c81.1,99.8,81.1,243.5,0,343.3h-40.1V557.9z"
         id="path3773" /></g><path
       opacity="0.6"
       fill="#FFFFFF"
       enable-background="new    "
       d="M516.8,560.9h-40.3v40.3c-99.8,81.1-243.5,81.1-343.5,0v-40.3   H92.8c-81.3-100.1-81.1-244.1,0.4-344h40.4v-40.3c99.8-80.6,243.1-80.3,342.7,0.6v40.3h40.3C598,317.4,598,461.1,516.8,560.9z"
       id="path3775"
       style="stroke-width:0.1;stroke-miterlimit:4;stroke-dasharray:none" /></g><flowRoot
     xml:space="preserve"
     id="flowRoot3805"
     style="fill:black;stroke:none;stroke-opacity:1;stroke-width:1px;stroke-linejoin:miter;stroke-linecap:butt;fill-opacity:1;font-family:sans-serif;font-style:normal;font-weight:normal;font-size:40px;line-height:125%;letter-spacing:0px;word-spacing:0px"><flowRegion
       id="flowRegion3807"><rect
         id="rect3809"
         width="204.2934"
         height="56.156479"
         x="-79.393646"
         y="239.14914" /></flowRegion><flowPara
       id="flowPara3811" /></flowRoot><flowRoot
     xml:space="preserve"
     id="flowRoot3813"
     style="fill:black;stroke:none;stroke-opacity:1;stroke-width:1px;stroke-linejoin:miter;stroke-linecap:butt;fill-opacity:1;font-family:sans-serif;font-style:normal;font-weight:normal;font-size:40px;line-height:125%;letter-spacing:0px;word-spacing:0px"><flowRegion
       id="flowRegion3815"><rect
         id="rect3817"
         width="177.18338"
         height="70.67971"
         x="-216.88019"
         y="144.26405" /></flowRegion><flowPara
       id="flowPara3819" /></flowRoot><flowRoot
     xml:space="preserve"
     id="flowRoot3355"
     style="fill:black;stroke:none;stroke-opacity:1;stroke-width:1px;stroke-linejoin:miter;stroke-linecap:butt;fill-opacity:1;font-family:sans-serif;font-style:normal;font-weight:normal;font-size:40px;line-height:125%;letter-spacing:0px;word-spacing:0px"><flowRegion
       id="flowRegion3357"><rect
         id="rect3359"
         width="379.54034"
         height="149.10513"
         x="70.679703"
         y="243.02202" /></flowRegion><flowPara
       id="flowPara3361" /></flowRoot><g
     id="g6211"
     transform="translate(4.8331685,-16.471133)"><path
       inkscape:connector-curvature="0"
       id="path5743"
       d="m -18.93795,238.94798 c -30.16171,-0.58417 -56.88226,26.63825 -57.15236,56.55273 -2.7067,23.20171 4.1091,50.06345 24.67775,63.45118 20.81134,12.90022 48.24014,11.27405 69.60547,0.81054 7.9346,-7.34327 3.01172,-18.95846 4.39844,-28.20117 0,-6.10351 0,-12.20703 0,-18.31055 -15.22288,0.93467 -29.39097,13.19524 -44.83985,7.75196 -7.38989,-8.32833 -4.79259,-20.54144 -3.18554,-30.47071 3.53582,-7.69848 13.55039,-7.30043 19.75195,-3.35937 6.34133,2.68327 12.44711,5.91293 18.94531,8.22461 5.56419,-14.00753 11.12517,-28.01634 16.68555,-42.02539 -14.68115,-8.88422 -31.54709,-14.89142 -48.88672,-14.42383 z"
       style="font-style:normal;font-variant:normal;font-weight:bold;font-stretch:normal;font-size:137.5px;line-height:125%;font-family:'Open Sans';-inkscape-font-specification:'Open Sans Bold';text-align:center;letter-spacing:0px;word-spacing:0px;text-anchor:middle;fill:#ffffff;fill-opacity:0.76969694;stroke:none;stroke-width:1px;stroke-linecap:butt;stroke-linejoin:miter;stroke-opacity:1" /><path
       inkscape:connector-curvature="0"
       id="path5745"
       d="m 55.8765,261.93821 c -24.49686,0.4073 -46.34661,22.1569 -46.57617,46.72852 -2.58092,22.33322 8.56344,47.67746 30.60938,55.77734 23.85085,9.90602 56.05413,-0.37178 65.59315,-25.45791 9.90503,-23.48347 4.36063,-54.93136 -18.02089,-69.27646 -9.37245,-5.93502 -20.61166,-8.22502 -31.60547,-7.77149 z m 3.57227,44.88086 c 3.13877,3.72204 1.29666,9.3593 1.6289,13.85938 -0.33494,1.57299 -1.99094,4.00024 -2.3125,0.92969 -1.49186,-4.7858 -1.16091,-10.22577 0.6836,-14.78907 z"
       style="font-style:normal;font-variant:normal;font-weight:bold;font-stretch:normal;font-size:137.5px;line-height:125%;font-family:'Open Sans';-inkscape-font-specification:'Open Sans Bold';text-align:center;letter-spacing:0px;word-spacing:0px;text-anchor:middle;fill:#ffffff;fill-opacity:0.76969694;stroke:none;stroke-width:1px;stroke-linecap:butt;stroke-linejoin:miter;stroke-opacity:1" /><path
       inkscape:connector-curvature="0"
       id="path5747"
       d="m 153.55619,261.91087 c -6.3656,0.054 -12.31321,3.06459 -18.45508,3.92383 -8.94439,-4.43614 -20.12461,-3.70088 -29.06445,0.1543 -7.68457,4.77901 -9.10285,14.85036 -7.30469,23.02148 1.02177,22.75367 -0.70327,45.74174 0.39063,68.51367 3.43414,9.37369 15.07493,10.40535 23.54492,8.82813 8.35096,1.34373 20.29143,1.17944 23.7539,-8.28516 0.8053,-2.70639 1.18303,-5.5621 1.30665,-8.35156 0.49976,6.10301 0.71731,14.58258 7.94531,16.51953 7.73379,1.7601 15.79848,-0.52555 23.67578,0.3418 5.85612,0 11.71224,0 17.56836,0 -3.54299,-27.88642 4.0728,-57.00866 -5.04139,-84.1657 -7.04297,-13.962 -23.03919,-21.52238 -38.31994,-20.50032 z m -5.89258,50.59375 c 0.69683,8.8779 -0.23911,17.79709 -0.24023,26.70313 -0.0613,-8.74565 -0.73353,-17.9993 0.24023,-26.70313 z"
       style="font-style:normal;font-variant:normal;font-weight:bold;font-stretch:normal;font-size:137.5px;line-height:125%;font-family:'Open Sans';-inkscape-font-specification:'Open Sans Bold';text-align:center;letter-spacing:0px;word-spacing:0px;text-anchor:middle;fill:#ffffff;fill-opacity:0.76969694;stroke:none;stroke-width:1px;stroke-linecap:butt;stroke-linejoin:miter;stroke-opacity:1" /><path
       inkscape:connector-curvature="0"
       id="path5749"
       d="m 270.40971,233.76829 c -10.9868,2.43207 -24.23967,-3.55701 -33.75977,4.25196 -4.78016,6.54205 -0.85388,14.86174 -2.19727,22.17968 1.33619,4.08302 -4.0951,0.86565 -6.35937,1.67383 -20.24844,-0.0504 -39.42967,16.14366 -41.43359,36.55664 -4.91559,21.52651 -1.16094,47.64507 17,62.13672 12.21595,8.82509 29.10431,9.37373 42.66406,3.41992 9.05198,4.73648 20.68228,4.28695 29.73437,-0.043 7.2301,-4.58424 9.03565,-14.01146 7.22767,-21.8557 -1.54235,-34.02848 1.70576,-68.46756 -1.46985,-102.39234 -2.07063,-4.13638 -6.96662,-6.10634 -11.40625,-5.92774 z m -35.48438,73.76367 c 2.08456,4.3847 0.68832,9.66066 1.00195,14.32032 -1.73268,3.93932 -2.22483,-3.24464 -2.48047,-4.71094 -0.22251,-3.20779 0.14672,-6.78152 1.47852,-9.60938 z"
       style="font-style:normal;font-variant:normal;font-weight:bold;font-stretch:normal;font-size:137.5px;line-height:125%;font-family:'Open Sans';-inkscape-font-specification:'Open Sans Bold';text-align:center;letter-spacing:0px;word-spacing:0px;text-anchor:middle;fill:#ffffff;fill-opacity:0.76969694;stroke:none;stroke-width:1px;stroke-linecap:butt;stroke-linejoin:miter;stroke-opacity:1" /><path
       inkscape:connector-curvature="0"
       id="path5751"
       d="m 299.29838,233.85032 c -13.76559,-0.34738 -24.91265,12.76977 -23.93555,26.16602 -0.33086,4.82574 3.50999,9.02505 1.1543,13.58398 -0.90821,8.28333 0.85591,16.6117 -0.0781,24.91602 0,22.68685 0,45.3737 0,68.06055 16.15755,0 32.31511,0 48.47266,0 0.37244,-34.14768 -0.71607,-68.41836 0.54492,-102.49024 3.89486,-14.71958 -8.76751,-31.45893 -24.33594,-30.20508 -0.60652,-0.0254 -1.21502,-0.0534 -1.82226,-0.0312 z"
       style="font-style:normal;font-variant:normal;font-weight:bold;font-stretch:normal;font-size:137.5px;line-height:125%;font-family:'Open Sans';-inkscape-font-specification:'Open Sans Bold';text-align:center;letter-spacing:0px;word-spacing:0px;text-anchor:middle;fill:#ffffff;fill-opacity:0.76969694;stroke:none;stroke-width:1px;stroke-linecap:butt;stroke-linejoin:miter;stroke-opacity:1" /><path
       inkscape:connector-curvature="0"
       id="path5753"
       d="m 342.63627,247.32884 c -10.35797,0.34366 -15.75433,11.08958 -17.78516,19.95312 -7.98143,4.0059 -15.52937,11.46677 -14.70898,21.10743 -0.24976,7.25564 3.4851,15.34906 10.73633,17.78711 -0.55641,17.07231 -3.20996,37.15041 9.09179,51.0625 12.782,13.21554 33.97711,12.91109 50.18555,7.01562 7.85818,-2.52786 12.32133,-10.85272 10.9707,-18.8418 -1.32207,-7.04543 2.36865,-15.54709 -3.72851,-21.16601 -4.69592,-5.51587 -12.66415,-4.59274 -18.38672,-1.34961 -0.024,-5.37087 -0.41575,-10.5981 0.51562,-15.8457 7.19896,0.52158 15.16597,-0.65157 20.51563,-5.93555 0,-12.4069 0,-24.8138 0,-37.2207 -6.79121,-1.14629 -13.80854,0.37321 -20.48242,-0.62305 -0.4254,-9.14091 -9.03621,-17.51523 -18.43694,-15.72508 -2.82797,-0.0965 -5.65821,-0.15336 -8.48689,-0.21828 z"
       style="font-style:normal;font-variant:normal;font-weight:bold;font-stretch:normal;font-size:137.5px;line-height:125%;font-family:'Open Sans';-inkscape-font-specification:'Open Sans Bold';text-align:center;letter-spacing:0px;word-spacing:0px;text-anchor:middle;fill:#ffffff;fill-opacity:0.76969694;stroke:none;stroke-width:1px;stroke-linecap:butt;stroke-linejoin:miter;stroke-opacity:1" /><path
       inkscape:connector-curvature="0"
       id="path5755"
       d="m 400.81205,233.85032 c -13.76559,-0.34738 -24.91265,12.76977 -23.93555,26.16602 -0.33086,4.82574 3.50999,9.02505 1.1543,13.58398 -0.90821,8.28333 0.85592,16.6117 -0.0781,24.91602 0,22.68685 0,45.3737 0,68.06055 16.15756,0 32.31511,0 48.47266,0 0.37244,-34.14768 -0.71606,-68.41836 0.54492,-102.49024 3.89486,-14.71958 -8.76751,-31.45893 -24.33594,-30.20508 -0.60652,-0.0254 -1.21502,-0.0534 -1.82226,-0.0312 z"
       style="font-style:normal;font-variant:normal;font-weight:bold;font-stretch:normal;font-size:137.5px;line-height:125%;font-family:'Open Sans';-inkscape-font-specification:'Open Sans Bold';text-align:center;letter-spacing:0px;word-spacing:0px;text-anchor:middle;fill:#ffffff;fill-opacity:0.76969694;stroke:none;stroke-width:1px;stroke-linecap:butt;stroke-linejoin:miter;stroke-opacity:1" /><path
       inkscape:connector-curvature="0"
       id="path5757"
       d="m 461.93119,261.93821 c -24.49686,0.4073 -46.34661,22.1569 -46.57617,46.72852 -2.58092,22.33322 8.56344,47.67746 30.60937,55.77734 23.85086,9.90602 56.05414,-0.37178 65.59316,-25.45791 9.90503,-23.48347 4.36063,-54.93136 -18.02089,-69.27646 -9.37245,-5.93502 -20.61167,-8.22502 -31.60547,-7.77149 z m 3.63477,44.92774 c 3.13784,4.09036 1.24016,9.79334 1.38867,14.55078 -1.5218,4.45723 -2.65808,-1.18801 -2.89844,-3.14062 -0.51747,-3.81474 -0.10916,-7.96835 1.50977,-11.41016 z"
       style="font-style:normal;font-variant:normal;font-weight:bold;font-stretch:normal;font-size:137.5px;line-height:125%;font-family:'Open Sans';-inkscape-font-specification:'Open Sans Bold';text-align:center;letter-spacing:0px;word-spacing:0px;text-anchor:middle;fill:#ffffff;fill-opacity:0.76969694;stroke:none;stroke-width:1px;stroke-linecap:butt;stroke-linejoin:miter;stroke-opacity:1" /><path
       inkscape:connector-curvature="0"
       id="path5759"
       d="m 559.61283,261.91087 c -6.38047,0.0515 -12.40477,3.09458 -18.45703,3.92383 -8.94439,-4.43614 -20.12461,-3.70088 -29.06445,0.1543 -7.68457,4.77901 -9.10286,14.85036 -7.30469,23.02148 1.02175,22.75433 -0.70327,45.74304 0.39062,68.51563 3.43639,9.37306 15.07831,10.40257 23.54883,8.82617 8.3489,1.34429 20.28525,1.17847 23.75,-8.28125 0.80981,-2.70423 1.19255,-5.5202 1.3086,-8.33594 0.49721,6.09835 0.72307,14.56589 7.94336,16.5 7.73378,1.7601 15.79848,-0.52555 23.67578,0.3418 5.85612,0 11.71224,0 17.56836,0 -3.53787,-27.89026 4.06741,-57.0055 -5.03944,-84.1657 -7.04433,-13.96003 -23.03922,-21.52402 -38.31994,-20.50032 z m -5.89453,50.59375 c 0.69901,8.91111 -0.2455,17.86326 -0.24023,26.80273 -0.0875,-8.7291 -0.7013,-18.2889 0.24023,-26.80273 z"
       style="font-style:normal;font-variant:normal;font-weight:bold;font-stretch:normal;font-size:137.5px;line-height:125%;font-family:'Open Sans';-inkscape-font-specification:'Open Sans Bold';text-align:center;letter-spacing:0px;word-spacing:0px;text-anchor:middle;fill:#ffffff;fill-opacity:0.76969694;stroke:none;stroke-width:1px;stroke-linecap:butt;stroke-linejoin:miter;stroke-opacity:1" /><path
       inkscape:connector-curvature="0"
       id="path5761"
       d="m 629.51713,262.00853 c -17.39782,0.33716 -36.34652,11.97303 -38.46289,30.42187 -1.30712,6.641 0.65727,14.02078 2.72265,19.76367 -5.19053,2.70666 -1.84125,10.01524 -2.72461,14.54297 0,10.6875 0,21.375 0,32.0625 22.44316,11.14895 51.78437,14.11539 73.10743,-1.16015 14.90034,-12.83896 15.52794,-38.10038 2.14062,-52.23438 3.6556,-8.98608 8.86391,-17.85872 10.28906,-27.44922 -1.6808,-8.18167 -11.51663,-8.85661 -17.73437,-11.85937 -9.43564,-3.14582 -19.41558,-4.36486 -29.33789,-4.08789 z"
       style="font-style:normal;font-variant:normal;font-weight:bold;font-stretch:normal;font-size:137.5px;line-height:125%;font-family:'Open Sans';-inkscape-font-specification:'Open Sans Bold';text-align:center;letter-spacing:0px;word-spacing:0px;text-anchor:middle;fill:#ffffff;fill-opacity:0.76969694;stroke:none;stroke-width:1px;stroke-linecap:butt;stroke-linejoin:miter;stroke-opacity:1" /><path
       inkscape:connector-curvature="0"
       id="path5763"
       d="m 69.47025,412.03001 c -6.66371,0.53751 -6.70636,8.584 -5.97851,13.51563 -0.0366,37.63509 -0.005,75.27088 -0.0156,112.90625 16.16146,0 32.32292,0 48.48438,0 0.62087,-6.41054 0.16324,-14.73029 0.55468,-19.91016 4.24699,6.62122 8.47406,13.14204 12.4336,19.91016 19.01562,0 38.03125,0 57.04687,0 -11.08554,-18.05754 -24.14874,-34.803 -35.26367,-52.83985 18.6662,-17.3844 16.53009,-53.0263 -6.50976,-65.69726 -21.56404,-12.31624 -47.35325,-5.72089 -70.75196,-7.88477 z m 41.52735,44.80274 c -1.63534,2.14776 -0.99137,-3.12489 0,0 z"
       style="font-style:normal;font-variant:normal;font-weight:bold;font-stretch:normal;font-size:137.5px;line-height:125%;font-family:'Open Sans';-inkscape-font-specification:'Open Sans Bold';text-align:center;letter-spacing:0px;word-spacing:0px;text-anchor:middle;fill:#ffffff;fill-opacity:0.76969694;stroke:none;stroke-width:1px;stroke-linecap:butt;stroke-linejoin:miter;stroke-opacity:1" /><path
       inkscape:connector-curvature="0"
       id="path5765"
       d="m 195.27103,433.88743 c -25.51643,-0.53905 -47.64472,23.23373 -47.23046,48.38282 -2.34097,21.89151 9.16904,46.87928 31.21679,53.80468 19.05379,6.62721 41.8594,5.26331 58.45899,-6.78906 5.51321,-7.0149 2.5138,-16.36042 3.46679,-24.37695 5.71052,-4.20366 3.63008,-11.98879 4.42774,-18.03711 0.55889,-18.22453 -6.26043,-38.96594 -23.72071,-47.41211 -8.17902,-4.18113 -17.49255,-5.76424 -26.61914,-5.57227 z"
       style="font-style:normal;font-variant:normal;font-weight:bold;font-stretch:normal;font-size:137.5px;line-height:125%;font-family:'Open Sans';-inkscape-font-specification:'Open Sans Bold';text-align:center;letter-spacing:0px;word-spacing:0px;text-anchor:middle;fill:#ffffff;fill-opacity:0.76969694;stroke:none;stroke-width:1px;stroke-linecap:butt;stroke-linejoin:miter;stroke-opacity:1" /><path
       inkscape:connector-curvature="0"
       id="path5767"
       d="m 288.46049,433.8054 c -6.13252,-0.44929 -11.69436,3.04757 -17.51563,3.80664 -9.18486,-4.33834 -20.25582,-3.31119 -29.55469,-0.0976 -8.10168,4.58567 -9.27338,15.00409 -7.66923,23.28654 0.91925,36.88963 -0.2469,73.79143 0.37627,110.68416 16.29492,0 32.58984,0 48.88476,0 -0.73442,-10.61651 -0.58756,-21.26352 -0.41406,-31.9375 21.80294,3.5801 44.94865,-13.03216 47.4609,-35.21486 5.51705,-21.91971 1.48088,-48.73092 -17.25582,-63.31834 -7.04077,-4.96134 -15.72978,-7.39497 -24.3125,-7.20899 z m -5.46289,46.8086 c 0.78416,4.04298 -0.10696,8.91921 0.0254,12.60546 -1.07386,-4.04936 -0.96522,-8.89772 -0.0254,-12.60546 z"
       style="font-style:normal;font-variant:normal;font-weight:bold;font-stretch:normal;font-size:137.5px;line-height:125%;font-family:'Open Sans';-inkscape-font-specification:'Open Sans Bold';text-align:center;letter-spacing:0px;word-spacing:0px;text-anchor:middle;fill:#ffffff;fill-opacity:0.76969694;stroke:none;stroke-width:1px;stroke-linecap:butt;stroke-linejoin:miter;stroke-opacity:1" /><path
       inkscape:connector-curvature="0"
       id="path5769"
       d="m 363.10307,433.81321 c -24.49687,0.4073 -46.34661,22.1569 -46.57618,46.72852 -2.58091,22.33322 8.56344,47.67746 30.60938,55.77734 23.85085,9.90602 56.05413,-0.37178 65.59315,-25.45791 9.90495,-23.48343 4.36057,-54.93136 -18.02089,-69.27646 -9.37244,-5.93502 -20.61166,-8.22502 -31.60546,-7.77149 z m 3.63476,44.92774 c 3.13785,4.09036 1.24016,9.79334 1.38867,14.55078 -1.52179,4.45723 -2.65807,-1.18801 -2.89843,-3.14062 -0.51748,-3.81474 -0.10917,-7.96835 1.50976,-11.41016 z"
       style="font-style:normal;font-variant:normal;font-weight:bold;font-stretch:normal;font-size:137.5px;line-height:125%;font-family:'Open Sans';-inkscape-font-specification:'Open Sans Bold';text-align:center;letter-spacing:0px;word-spacing:0px;text-anchor:middle;fill:#ffffff;fill-opacity:0.76969694;stroke:none;stroke-width:1px;stroke-linecap:butt;stroke-linejoin:miter;stroke-opacity:1" /><path
       inkscape:connector-curvature="0"
       id="path5771"
       d="m 460.42533,433.97923 c -6.08637,-0.7038 -11.72458,3.7074 -17.20703,4.06641 -8.04988,-5.07296 -18.36227,-3.35715 -27.16211,-1.73829 -7.86091,2.58148 -12.05088,11.42529 -10.12744,19.27295 0.61712,27.62047 -0.0648,55.24875 0.30127,82.87159 15.80924,0 31.61849,0 47.42773,0 3.35058,-18.60084 -1.7483,-37.55311 2.31641,-55.86524 8.17383,-4.35778 16.61789,2.12668 23.85937,5.42969 1.34725,-16.72915 2.6938,-33.45835 4.04102,-50.1875 -7.62277,-2.17578 -15.45385,-4.17883 -23.44922,-3.84961 z"
       style="font-style:normal;font-variant:normal;font-weight:bold;font-stretch:normal;font-size:137.5px;line-height:125%;font-family:'Open Sans';-inkscape-font-specification:'Open Sans Bold';text-align:center;letter-spacing:0px;word-spacing:0px;text-anchor:middle;fill:#ffffff;fill-opacity:0.76969694;stroke:none;stroke-width:1px;stroke-linecap:butt;stroke-linejoin:miter;stroke-opacity:1" /><path
       inkscape:connector-curvature="0"
       id="path5773"
       d="m 493.02689,419.20384 c -10.35796,0.34366 -15.75433,11.08958 -17.78515,19.95312 -7.98143,4.0059 -15.52938,11.46677 -14.70899,21.10743 -0.24976,7.25564 3.4851,15.34906 10.73633,17.78711 -0.5564,17.07231 -3.20995,37.15041 9.0918,51.0625 12.782,13.21554 33.97711,12.91109 50.18554,7.01562 7.85731,-2.52768 12.32105,-10.85131 10.97071,-18.83984 -1.32327,-7.04369 2.36959,-15.54352 -3.72461,-21.16211 -4.70781,-5.56695 -12.72825,-4.5325 -18.44141,-1.35938 -0.098,-5.32783 0.0451,-10.56674 0.3125,-15.85742 7.27541,0.54517 15.36027,-0.56028 20.76953,-5.92383 0,-12.4056 0,-24.8112 0,-37.21679 -6.79121,-1.14629 -13.80854,0.37321 -20.48242,-0.62305 -0.4254,-9.14091 -9.0362,-17.51523 -18.43693,-15.72508 -2.82798,-0.0965 -5.65822,-0.15336 -8.4869,-0.21828 z"
       style="font-style:normal;font-variant:normal;font-weight:bold;font-stretch:normal;font-size:137.5px;line-height:125%;font-family:'Open Sans';-inkscape-font-specification:'Open Sans Bold';text-align:center;letter-spacing:0px;word-spacing:0px;text-anchor:middle;fill:#ffffff;fill-opacity:0.76969694;stroke:none;stroke-width:1px;stroke-linecap:butt;stroke-linejoin:miter;stroke-opacity:1" /><g
       id="text5730"
       style="font-style:normal;font-weight:normal;font-size:40px;line-height:125%;font-family:sans-serif;letter-spacing:0px;word-spacing:0px;fill:#282828;fill-opacity:1;stroke:none;stroke-width:1px;stroke-linecap:butt;stroke-linejoin:miter;stroke-opacity:1"><path
         id="path6177"
         style="font-style:normal;font-variant:normal;font-weight:bold;font-stretch:normal;font-size:137.5px;font-family:'Open Sans';-inkscape-font-specification:'Open Sans Bold';text-align:center;text-anchor:middle;fill:#282828;fill-opacity:1"
         d="m -16.450165,272.15573 q -11.749267,0 -18.19458,8.86231 -6.445312,8.79516 -6.445312,24.57275 0,32.83081 24.639892,32.83081 10.3393557,0 25.0427248,-5.16968 l 0,17.45606 q -12.0849609,5.0354 -26.9897458,5.0354 -21.417237,0 -32.763672,-12.95777 -11.346436,-13.0249 -11.346436,-37.3291 0,-15.30761 5.57251,-26.78833 5.57251,-11.54785 15.979004,-17.65747 10.473633,-6.17676 24.505615,-6.17676 14.3005373,0 28.735352,6.91529 l -6.7138674,16.91894 q -5.50537111,-2.61841 -11.0778809,-4.56543 -5.5725097,-1.94702 -10.9436037,-1.94702 z"
         inkscape:connector-curvature="0" /><path
         id="path6179"
         style="font-style:normal;font-variant:normal;font-weight:bold;font-stretch:normal;font-size:137.5px;font-family:'Open Sans';-inkscape-font-specification:'Open Sans Bold';text-align:center;text-anchor:middle;fill:#282828;fill-opacity:1"
         d="m 44.108917,316.73581 q 0,11.14502 3.625489,16.85181 3.692626,5.70678 11.950683,5.70678 8.190918,0 11.749268,-5.63965 3.625488,-5.70678 3.625488,-16.91894 0,-11.14502 -3.625488,-16.71753 -3.625489,-5.57251 -11.883545,-5.57251 -8.190918,0 -11.816406,5.57251 -3.625489,5.50537 -3.625489,16.71753 z m 51.898194,0 q 0,18.32886 -9.667969,28.66821 -9.667969,10.33936 -26.922608,10.33936 -10.809326,0 -19.067382,-4.69971 -8.258057,-4.76685 -12.689209,-13.62915 -4.431153,-8.8623 -4.431153,-20.67871 0,-18.396 9.60083,-28.60107 9.60083,-10.20508 26.989746,-10.20508 10.809327,0 19.067383,4.6997 8.258057,4.69971 12.689209,13.49488 4.431153,8.79516 4.431153,20.61157 z"
         inkscape:connector-curvature="0" /><path
         id="path6181"
         style="font-style:normal;font-variant:normal;font-weight:bold;font-stretch:normal;font-size:137.5px;font-family:'Open Sans';-inkscape-font-specification:'Open Sans Bold';text-align:center;text-anchor:middle;fill:#282828;fill-opacity:1"
         d="m 182.21317,354.4006 -20.4773,0 0,-43.84155 q 0,-8.12378 -2.88696,-12.1521 -2.88697,-4.09546 -9.198,-4.09546 -8.59375,0 -12.42065,5.77393 -3.82691,5.70679 -3.82691,19.00024 l 0,35.31494 -20.47729,0 0,-75.06103 15.64331,0 2.75268,9.60083 1.14136,0 q 3.42407,-5.43823 9.39941,-8.19092 6.04248,-2.81982 13.69629,-2.81982 13.09204,0 19.87305,7.1167 6.78101,7.04956 6.78101,20.41015 l 0,48.94409 z"
         inkscape:connector-curvature="0" /><path
         id="path6183"
         style="font-style:normal;font-variant:normal;font-weight:bold;font-stretch:normal;font-size:137.5px;font-family:'Open Sans';-inkscape-font-specification:'Open Sans Bold';text-align:center;text-anchor:middle;fill:#282828;fill-opacity:1"
         d="m 227.19608,355.74338 q -13.22632,0 -20.81299,-10.27222 -7.51953,-10.27222 -7.51953,-28.4668 0,-18.46313 7.6538,-28.73535 7.72095,-10.33935 21.21582,-10.33935 14.16626,0 21.61866,11.01074 l 0.67138,0 q -1.54419,-8.39233 -1.54419,-14.97192 l 0,-24.03565 20.54444,0 0,104.46777 -15.71045,0 -3.96118,-9.7351 -0.87281,0 q -6.98242,11.07788 -21.28295,11.07788 z m 7.18383,-16.3147 q 7.85523,0 11.48072,-4.56543 3.69262,-4.56543 4.02832,-15.50903 l 0,-2.21558 q 0,-12.08496 -3.75977,-17.32178 -3.69263,-5.23681 -12.08496,-5.23681 -6.84814,0 -10.67505,5.84106 -3.75976,5.77393 -3.75976,16.85181 0,11.07788 3.8269,16.65039 3.8269,5.50537 10.9436,5.50537 z"
         inkscape:connector-curvature="0" /><path
         id="path6185"
         style="font-style:normal;font-variant:normal;font-weight:bold;font-stretch:normal;font-size:137.5px;font-family:'Open Sans';-inkscape-font-specification:'Open Sans Bold';text-align:center;text-anchor:middle;fill:#282828;fill-opacity:1"
         d="m 289.5679,259.93649 q 0,-10.00366 11.14502,-10.00366 11.14502,0 11.14502,10.00366 0,4.76685 -2.81982,7.4524 -2.75269,2.6184 -8.3252,2.6184 -11.14502,0 -11.14502,-10.0708 z m 21.3501,94.46411 -20.4773,0 0,-75.06103 20.4773,0 0,75.06103 z"
         inkscape:connector-curvature="0" /><path
         id="path6187"
         style="font-style:normal;font-variant:normal;font-weight:bold;font-stretch:normal;font-size:137.5px;font-family:'Open Sans';-inkscape-font-specification:'Open Sans Bold';text-align:center;text-anchor:middle;fill:#282828;fill-opacity:1"
         d="m 363.95755,339.42868 q 5.37109,0 12.89063,-2.34985 l 0,15.24048 q -7.65381,3.42407 -18.79883,3.42407 -12.28638,0 -17.92603,-6.17676 -5.57251,-6.2439 -5.57251,-18.66455 l 0,-36.18775 -9.80224,0 0,-8.66088 11.27929,-6.84815 5.90821,-15.84472 13.09204,0 0,15.979 21.0144,0 0,15.37475 -21.0144,0 0,36.18775 q 0,4.36401 2.41699,6.44531 2.48413,2.0813 6.51245,2.0813 z"
         inkscape:connector-curvature="0" /><path
         id="path6189"
         style="font-style:normal;font-variant:normal;font-weight:bold;font-stretch:normal;font-size:137.5px;font-family:'Open Sans';-inkscape-font-specification:'Open Sans Bold';text-align:center;text-anchor:middle;fill:#282828;fill-opacity:1"
         d="m 391.08157,259.93649 q 0,-10.00366 11.14502,-10.00366 11.14502,0 11.14502,10.00366 0,4.76685 -2.81982,7.4524 -2.75269,2.6184 -8.3252,2.6184 -11.14502,0 -11.14502,-10.0708 z m 21.3501,94.46411 -20.47729,0 0,-75.06103 20.47729,0 0,75.06103 z"
         inkscape:connector-curvature="0" /><path
         id="path6191"
         style="font-style:normal;font-variant:normal;font-weight:bold;font-stretch:normal;font-size:137.5px;font-family:'Open Sans';-inkscape-font-specification:'Open Sans Bold';text-align:center;text-anchor:middle;fill:#282828;fill-opacity:1"
         d="m 450.1636,316.73581 q 0,11.14502 3.62549,16.85181 3.69263,5.70678 11.95069,5.70678 8.19091,0 11.74926,-5.63965 3.62549,-5.70678 3.62549,-16.91894 0,-11.14502 -3.62549,-16.71753 -3.62548,-5.57251 -11.88354,-5.57251 -8.19092,0 -11.81641,5.57251 -3.62549,5.50537 -3.62549,16.71753 z m 51.8982,0 q 0,18.32886 -9.66797,28.66821 -9.66797,10.33936 -26.92261,10.33936 -10.80932,0 -19.06738,-4.69971 -8.25806,-4.76685 -12.68921,-13.62915 -4.43115,-8.8623 -4.43115,-20.67871 0,-18.396 9.60083,-28.60107 9.60083,-10.20508 26.98974,-10.20508 10.80933,0 19.06739,4.6997 8.25805,4.69971 12.68921,13.49488 4.43115,8.79516 4.43115,20.61157 z"
         inkscape:connector-curvature="0" /><path
         id="path6193"
         style="font-style:normal;font-variant:normal;font-weight:bold;font-stretch:normal;font-size:137.5px;font-family:'Open Sans';-inkscape-font-specification:'Open Sans Bold';text-align:center;text-anchor:middle;fill:#282828;fill-opacity:1"
         d="m 588.26785,354.4006 -20.47729,0 0,-43.84155 q 0,-8.12378 -2.88697,-12.1521 -2.88696,-4.09546 -9.19799,-4.09546 -8.59375,0 -12.42066,5.77393 -3.8269,5.70679 -3.8269,19.00024 l 0,35.31494 -20.4773,0 0,-75.06103 15.64331,0 2.75269,9.60083 1.14136,0 q 3.42407,-5.43823 9.39941,-8.19092 6.04248,-2.81982 13.69629,-2.81982 13.09204,0 19.87305,7.1167 6.781,7.04956 6.781,20.41015 l 0,48.94409 z"
         inkscape:connector-curvature="0" /><path
         id="path6195"
         style="font-style:normal;font-variant:normal;font-weight:bold;font-stretch:normal;font-size:137.5px;font-family:'Open Sans';-inkscape-font-specification:'Open Sans Bold';text-align:center;text-anchor:middle;fill:#282828;fill-opacity:1"
         d="m 661.85184,332.11057 q 0,11.54785 -8.05664,17.59033 -7.98951,6.04248 -23.96851,6.04248 -8.19092,0 -13.96484,-1.14136 -5.77393,-1.07422 -10.80933,-3.22266 l 0,-16.91894 q 5.70679,2.68555 12.82349,4.49829 7.18383,1.81274 12.62207,1.81274 11.14502,0 11.14502,-6.44531 0,-2.41699 -1.47705,-3.89404 -1.47705,-1.54419 -5.10254,-3.42407 -3.62549,-1.94703 -9.66797,-4.49829 -8.66089,-3.62549 -12.75635,-6.71387 -4.02832,-3.08838 -5.9082,-7.04956 -1.81275,-4.02832 -1.81275,-9.86939 0,-10.00366 7.72095,-15.44189 7.78809,-5.50537 22.02149,-5.50537 13.56201,0 26.38549,5.9082 l -6.17675,14.77051 q -5.63965,-2.41699 -10.54078,-3.96118 -4.90112,-1.54419 -10.00366,-1.54419 -9.06372,0 -9.06372,4.90112 0,2.75269 2.88696,4.76685 2.95411,2.01416 12.82349,5.97534 8.79517,3.55835 12.89063,6.64673 4.09545,3.08837 6.04248,7.1167 1.94702,4.02832 1.94702,9.60083 z"
         inkscape:connector-curvature="0" /><path
         id="path6197"
         style="font-style:normal;font-variant:normal;font-weight:bold;font-stretch:normal;font-size:137.5px;font-family:'Open Sans';-inkscape-font-specification:'Open Sans Bold';text-align:center;text-anchor:middle;fill:#282828;fill-opacity:1"
         d="m 98.289825,471.69186 6.713865,0 q 9.86939,0 14.56909,-3.28979 4.69971,-3.2898 4.69971,-10.33936 0,-6.98242 -4.83398,-9.93652 -4.76685,-2.9541 -14.83765,-2.9541 l -6.311035,0 0,26.51977 z m 0,16.91895 0,37.66479 -20.812988,0 0,-98.15673 28.601073,0 q 20.00733,0 29.60816,7.31811 9.60083,7.25098 9.60083,22.08862 0,8.66089 -4.76685,15.4419 -4.76685,6.71387 -13.49487,10.54077 22.15576,33.09937 28.86963,42.76733 l -23.09571,0 -23.43139,-37.66479 -11.077885,0 z"
         inkscape:connector-curvature="0" /><path
         id="path6199"
         style="font-style:normal;font-variant:normal;font-weight:bold;font-stretch:normal;font-size:137.5px;font-family:'Open Sans';-inkscape-font-specification:'Open Sans Bold';text-align:center;text-anchor:middle;fill:#282828;fill-opacity:1"
         d="m 197.7222,464.37375 q -6.51245,0 -10.20508,4.1626 -3.69263,4.09546 -4.22974,11.68213 l 28.73536,0 q -0.13428,-7.58667 -3.96119,-11.68213 -3.8269,-4.1626 -10.33935,-4.1626 z m 2.88696,63.24463 q -18.12744,0 -28.33252,-10.00366 -10.20508,-10.00367 -10.20508,-28.33252 0,-18.86597 9.39942,-29.13819 9.46655,-10.33935 26.11694,-10.33935 15.91187,0 24.77417,9.06372 8.86231,9.06372 8.86231,25.04272 l 0,9.93653 -48.40699,0 q 0.3357,8.72802 5.16968,13.62915 4.83399,4.90112 13.56201,4.90112 6.78101,0 12.82349,-1.40991 6.04248,-1.40992 12.62207,-4.49829 l 0,15.84472 q -5.37109,2.68555 -11.48071,3.96118 -6.10962,1.34278 -14.90479,1.34278 z"
         inkscape:connector-curvature="0" /><path
         id="path6201"
         style="font-style:normal;font-variant:normal;font-weight:bold;font-stretch:normal;font-size:137.5px;font-family:'Open Sans';-inkscape-font-specification:'Open Sans Bold';text-align:center;text-anchor:middle;fill:#282828;fill-opacity:1"
         d="m 289.23221,527.61838 q -13.22632,0 -20.74585,-9.60083 l -1.07422,0 q 1.07422,9.39941 1.07422,10.87646 l 0,30.41382 -20.4773,0 0,-108.09326 16.65039,0 2.88697,9.73511 0.93994,0 q 7.18384,-11.14502 21.28296,-11.14502 13.29345,0 20.81299,10.27221 7.51953,10.27222 7.51953,28.53394 0,12.01782 -3.55835,20.88013 -3.49121,8.8623 -10.00366,13.49487 -6.51246,4.63257 -15.30762,4.63257 z m -6.04248,-61.43189 q -7.58667,0 -11.07788,4.69971 -3.49121,4.63257 -3.62549,15.37476 l 0,2.21557 q 0,12.08496 3.55835,17.32178 3.62549,5.23682 11.41357,5.23682 13.76343,0 13.76343,-22.69288 0,-11.07788 -3.42407,-16.58325 -3.35694,-5.57251 -10.60791,-5.57251 z"
         inkscape:connector-curvature="0" /><path
         id="path6203"
         style="font-style:normal;font-variant:normal;font-weight:bold;font-stretch:normal;font-size:137.5px;font-family:'Open Sans';-inkscape-font-specification:'Open Sans Bold';text-align:center;text-anchor:middle;fill:#282828;fill-opacity:1"
         d="m 351.33548,488.61081 q 0,11.14502 3.62549,16.85181 3.69262,5.70678 11.95068,5.70678 8.19092,0 11.74927,-5.63965 3.62549,-5.70678 3.62549,-16.91894 0,-11.14502 -3.62549,-16.71753 -3.62549,-5.57251 -11.88355,-5.57251 -8.19091,0 -11.8164,5.57251 -3.62549,5.50537 -3.62549,16.71753 z m 51.89819,0 q 0,18.32886 -9.66797,28.66821 -9.66796,10.33936 -26.9226,10.33936 -10.80933,0 -19.06739,-4.69971 -8.25805,-4.76685 -12.6892,-13.62915 -4.43116,-8.8623 -4.43116,-20.67871 0,-18.396 9.60083,-28.60107 9.60083,-10.20508 26.98975,-10.20508 10.80933,0 19.06738,4.6997 8.25806,4.69971 12.68921,13.49488 4.43115,8.79516 4.43115,20.61157 z"
         inkscape:connector-curvature="0" /><path
         id="path6205"
         style="font-style:normal;font-variant:normal;font-weight:bold;font-stretch:normal;font-size:137.5px;font-family:'Open Sans';-inkscape-font-specification:'Open Sans Bold';text-align:center;text-anchor:middle;fill:#282828;fill-opacity:1"
         d="m 462.04715,449.80466 q 4.1626,0 6.91528,0.60425 l -1.54419,19.20166 q -2.48413,-0.67139 -6.04248,-0.67139 -9.80224,0 -15.30761,5.0354 -5.43824,5.0354 -5.43824,14.09912 l 0,38.2019 -20.47729,0 0,-75.06103 15.50903,0 3.02124,12.62207 1.00708,0 q 3.49121,-6.31104 9.39942,-10.13794 5.97534,-3.89404 12.95776,-3.89404 z"
         inkscape:connector-curvature="0" /><path
         id="path6207"
         style="font-style:normal;font-variant:normal;font-weight:bold;font-stretch:normal;font-size:137.5px;font-family:'Open Sans';-inkscape-font-specification:'Open Sans Bold';text-align:center;text-anchor:middle;fill:#282828;fill-opacity:1"
         d="m 514.34818,511.30368 q 5.37109,0 12.89062,-2.34985 l 0,15.24048 q -7.65381,3.42407 -18.79883,3.42407 -12.28638,0 -17.92602,-6.17676 -5.57251,-6.2439 -5.57251,-18.66455 l 0,-36.18775 -9.80225,0 0,-8.66088 11.2793,-6.84815 5.9082,-15.84472 13.09204,0 0,15.979 21.01441,0 0,15.37475 -21.01441,0 0,36.18775 q 0,4.36401 2.41699,6.44531 2.48413,2.0813 6.51246,2.0813 z"
         inkscape:connector-curvature="0" /></g></g></svg>