<?xml version="1.0" encoding="UTF-8" standalone="no"?>
<!-- Generator: Adobe Illustrator 19.2.1, SVG Export Plug-In . SVG Version: 6.00 Build 0)  -->

<svg
   xmlns:dc="http://purl.org/dc/elements/1.1/"
   xmlns:cc="http://creativecommons.org/ns#"
   xmlns:rdf="http://www.w3.org/1999/02/22-rdf-syntax-ns#"
   xmlns:svg="http://www.w3.org/2000/svg"
   xmlns="http://www.w3.org/2000/svg"
   xmlns:sodipodi="http://sodipodi.sourceforge.net/DTD/sodipodi-0.dtd"
   xmlns:inkscape="http://www.inkscape.org/namespaces/inkscape"
   version="1.1"
   id="Layer_1"
   x="0px"
   y="0px"
   viewBox="15 15 762 762"
   style="enable-background:new 0 0 792 792;"
   xml:space="preserve"
   inkscape:version="0.91 r13725"
   sodipodi:docname="early_season_icon.svg"><metadata
     id="metadata4379"><rdf:RDF><cc:Work
         rdf:about=""><dc:format>image/svg+xml</dc:format><dc:type
           rdf:resource="http://purl.org/dc/dcmitype/StillImage" /></cc:Work></rdf:RDF></metadata><defs
     id="defs4377" /><sodipodi:namedview
     pagecolor="#ffffff"
     bordercolor="#666666"
     borderopacity="1"
     objecttolerance="10"
     gridtolerance="10"
     guidetolerance="10"
     inkscape:pageopacity="0"
     inkscape:pageshadow="2"
     inkscape:window-width="2421"
     inkscape:window-height="1340"
     id="namedview4375"
     showgrid="false"
     inkscape:zoom="1.0931388"
     inkscape:cx="595.51098"
     inkscape:cy="365.73132"
     inkscape:window-x="1304"
     inkscape:window-y="0"
     inkscape:window-maximized="0"
     inkscape:current-layer="Layer_1" /><style
     type="text/css"
     id="style4349">
	.st0{opacity:0.4;fill:#2C3034;enable-background:new    ;}
	.st1{fill:#FFFFFF;}
</style><path
     style="fill:#ffffff"
     d="M 381.47461 30.886719 C 303.54961 30.749219 225.59961 56.499219 161.59961 108.19922 L 161.59961 159.80078 L 109.69922 159.80078 C 5.0992188 287.90078 4.8992188 472.8 109.19922 601 L 160.80078 601 L 160.80078 652.59961 C 289.00078 756.69961 473.30078 756.69961 601.30078 652.59961 L 601.30078 601 L 601.30078 600.80078 L 652.80078 600.80078 C 756.90078 472.80078 756.90078 288.5 652.80078 160.5 L 601.19922 160.5 L 601.19922 108.90039 C 537.29922 57.050391 459.39961 31.024219 381.47461 30.886719 z "
     transform="translate(15,15)"
     id="circle4351" /><path
     class="st0"
     d="M396.1,15.1c-210.3,0-380.7,170.4-380.7,380.7s170.4,380.7,380.7,380.7s380.6-170.4,380.6-380.7  S606.3,15.1,396.1,15.1z M616.3,616v51.6c-128,104.1-312.3,104.1-440.5,0V616h-51.6C19.9,487.8,20.1,302.9,124.7,174.8h51.9v-51.6  c128-103.4,311.8-103,439.6,0.7v51.6h51.6c104.1,128,104.1,312.3,0,440.3h-51.5V616L616.3,616z"
     id="path4353" /><path
     class="st1"
     d="M242.4,288c11.2-11,22.5-21.9,33.6-33c37.6-37.5,75.1-75.1,112.6-112.7c5.7-5.7,5.9-5.7,11.5-0.1  c59.7,59.8,119.3,119.5,179,179.3c2.7,2.7,5.5,5.8,3.7,9.7c-1.3,2.7-4,5.4-6.7,6.7c-3.8,1.7-6.9-1-9.7-3.7  c-18.5-18.6-37.1-37.1-55.6-55.7c-18.2-18.2-36.4-36.4-54.5-54.7c-2.8-2.8-4.7-3.5-8.4-1c-24.5,16-49.2,31.6-73.8,47.5  c-2.4,1.5-4,1.6-6.4,0.1c-12.9-8.1-26.1-15.8-38.9-24.1c-3.8-2.5-6.4-2-9.8,0c-24.4,14-48.9,27.8-73.3,41.7  c-0.8,0.4-1.6,0.8-2.3,1.2C243,288.6,242.7,288.3,242.4,288z"
     id="path4355" /><g
     id="g4357"><g
       id="g4359"><path
         class="st1"
         d="M123.8,395.9c2.3,3.3,3.7,6.1,5.8,8.3c29.5,29.7,59.1,59.2,88.7,88.8c56.4,56.5,112.8,113,169.1,169.5    c4.8,4.8,6.9,4.9,12.6,1.3c1.5-0.9,2.9-2.1,4.1-3.3c7-6.9,14-13.7,21-20.7c78.2-78.3,156.4-156.7,234.7-235    c5.8-5.8,6.8-8.8,0.4-16.7c-1-1.2-2.2-2.3-3.3-3.5c-39.1-39.1-78.3-78.3-117.4-117.4c-44.4-44.6-88.8-89.2-133.3-133.7    c-10.5-10.5-12.4-10.3-23,0.3c-38.6,38.6-77.2,77.1-115.7,115.8c-27.7,27.8-55.2,55.8-82.9,83.6c-18.1,18.1-36.5,35.8-54.6,53.9    C127.7,389.4,126.1,392.5,123.8,395.9z"
         id="path4361" /><path
         d="M123.8,395.9c2.3-3.4,3.9-6.5,6.2-8.9c18.1-18,36.5-35.8,54.6-53.9c27.7-27.8,55.2-55.8,82.9-83.6    c38.5-38.6,77.1-77.2,115.7-115.8c10.6-10.6,12.5-10.7,23-0.3c44.5,44.5,88.9,89,133.3,133.6c39.1,39.2,78.3,78.3,117.4,117.4    c1.1,1.1,2.3,2.2,3.3,3.5c6.4,7.9,5.5,10.9-0.4,16.7c-78.3,78.2-156.5,156.6-234.7,235c-6.9,6.9-13.9,13.8-21,20.7    c-1.3,1.2-2.6,2.4-4.1,3.3c-5.8,3.6-7.9,3.4-12.6-1.3c-56.3-56.4-112.7-112.9-169-169.3c-29.6-29.6-59.2-59.2-88.7-88.8    C127.6,402,126.1,399.2,123.8,395.9z M137.3,396.2c1.3,1.5,2,2.3,2.8,3.1c44.9,44.9,89.8,89.9,134.6,134.8    c38.6,38.7,77.3,77.4,115.8,116.1c3,3,5,3.6,8.3,0.3c83.5-83.7,167.1-167.4,250.7-251c0.8-0.8,1.4-1.8,2.5-3.3    C480.3,396.2,309.3,396.2,137.3,396.2z M242.8,288c0.3,0.3,0.5,0.7,0.8,1c0.8-0.4,1.6-0.8,2.3-1.2c24.4-13.9,48.9-27.7,73.3-41.7    c3.5-2,6-2.5,9.8,0c12.8,8.3,26,16,38.9,24.1c2.5,1.5,4.1,1.5,6.4-0.1c24.6-15.9,49.3-31.5,73.8-47.5c3.7-2.4,5.7-1.7,8.4,1    c18.1,18.3,36.3,36.5,54.5,54.7c18.5,18.6,37.1,37.1,55.6,55.7c2.7,2.7,5.9,5.4,9.7,3.7c2.7-1.2,5.4-3.9,6.7-6.7    c1.8-3.8-1-7-3.7-9.7C519.6,261.5,460,201.8,400.3,142c-5.6-5.6-5.8-5.5-11.5,0.1c-37.5,37.6-75,75.2-112.6,112.7    C265.3,266.1,254,277,242.8,288z"
         id="path4363" /><path
         class="st1"
         d="M242.8,288c11.2-11,22.5-21.9,33.6-33c37.6-37.5,75.1-75.1,112.6-112.7c5.7-5.7,5.9-5.7,11.5-0.1    c59.7,59.8,119.3,119.5,179,179.3c2.7,2.7,5.5,5.8,3.7,9.7c-1.3,2.7-4,5.4-6.7,6.7c-3.8,1.7-6.9-1-9.7-3.7    c-18.5-18.6-37.1-37.1-55.6-55.7c-18.2-18.2-36.4-36.4-54.5-54.7c-2.8-2.8-4.7-3.5-8.4-1c-24.5,16-49.2,31.6-73.8,47.5    c-2.4,1.5-4,1.6-6.4,0.1c-12.9-8.1-26.1-15.8-38.9-24.1c-3.8-2.5-6.4-2-9.8,0c-24.4,14-48.9,27.8-73.3,41.7    c-0.8,0.4-1.6,0.8-2.3,1.2C243.4,288.6,243.1,288.3,242.8,288z"
         id="path4365" /></g><g
       id="g4367"><circle
         cx="394.2"
         cy="498.4"
         r="73.1"
         id="circle4369" /><circle
         class="st1"
         cx="395.4"
         cy="463.1"
         r="9"
         id="circle4371" /><polygon
         class="st1"
         points="376.6,477.8 376.6,484.3 386.8,484.3 386.8,531.1 376.6,531.1 376.6,538.5 412.9,538.5 412.9,531.8     404.3,531.8 404.3,477.8   "
         id="polygon4373" /></g></g></svg>