<svg version="1.1" xmlns="http://www.w3.org/2000/svg" xmlns:xlink="http://www.w3.org/1999/xlink" x="0px" y="0px" viewBox="398.5 12.1 555 560" enable-background="new 398.5 12.1 555 560" xml:space="preserve">
  <path opacity="0.6" fill="#FFFFFF" enable-background="new" d="M874.5,437H838v36.5c-90.5,73.6-220.8,73.6-311.5,0V437H490c-73.7-90.7-73.6-221.4,0.4-312h36.7V88.5c90.5-73.1,220.5-72.8,310.8,0.5v36.5h36.5C948.1,216.2,948.1,346.5,874.5,437z"></path>
  <path opacity="0.4" fill="#2B2F33" d="M682.3,12.1c-148.7,0-269.2,120.5-269.2,269.2s120.5,269.2,269.2,269.2S951.4,430,951.4,281.3S831,12.1,682.3,12.1z M838,437v36.5c-90.5,73.6-220.8,73.6-311.5,0V437H490c-73.7-90.7-73.6-221.4,0.4-312h36.7V88.5c90.5-73.1,220.5-72.8,310.8,0.5v36.5h36.5c73.6,90.5,73.6,220.8,0,311.3H838V437z">
  </path>
    <polyline opacity="0.4" fill="none" stroke="#2B2F33" stroke-width="35.8138" stroke-miterlimit="10" points="769.7,262.9 842.9,378 521.6,378 682.3,125.5 711.7,171.8    "></polyline>
    <path opacity="0.4" fill="#2B2F33" stroke="#FFFFFF" stroke-width="1.1347" stroke-miterlimit="10" d="M758,140.9l74.1,14.3c3.1,0.6,5.3,4.1,4.5,7.2l-19.9,72.9c-1.1,3.9-6,4-8.4,0.2l-54.3-87.2C751.8,144.5,754.1,140.2,758,140.9z"></path>
    <path opacity="0.4" fill="#2B2F33" d="M791.9,208.2l-116.5,72.4c-2.1,1.3-4.9,0.7-6.2-1.4l-14.7-23.7c-1.3-2.1-0.7-4.9,1.4-6.2l116.5-72.4c2.1-1.3,4.9-0.7,6.2,1.4l14.7,23.7C794.6,204.1,794,206.9,791.9,208.2z"></path>
</svg>