<?xml version="1.0" encoding="utf-8"?>
<!-- Generator: Adobe Illustrator 15.1.0, SVG Export Plug-In . SVG Version: 6.00 Build 0)  -->
<!DOCTYPE svg PUBLIC "-//W3C//DTD SVG 1.1//EN" "http://www.w3.org/Graphics/SVG/1.1/DTD/svg11.dtd">
<svg version="1.1" xmlns="http://www.w3.org/2000/svg" xmlns:xlink="http://www.w3.org/1999/xlink" x="0px" y="0px"
	 viewBox="319.444 19.065 961.237 961.364"
	 enable-background="new 319.444 19.065 961.237 961.364" xml:space="preserve">
<g id="Layer_1">
	<path fill="#FFFFFF" stroke="#000000" stroke-miterlimit="10" d="M1143.182,777.777h-65.151v65.152
		c-161.616,131.439-394.318,131.439-556.187,0v-65.152h-65.151C325,615.909,325.252,382.449,457.323,220.707h65.53v-65.151
		C684.47,25,916.54,25.505,1077.904,156.439v65.151h65.151C1274.748,383.586,1274.748,616.162,1143.182,777.777z"/>
	<path opacity="0.4" fill="#2C3034" enable-background="new    " d="M800.126,19.065c-265.53,0-480.682,215.152-480.682,480.682
		c0,265.53,215.151,480.683,480.682,480.683s480.556-215.152,480.556-480.683C1280.682,234.217,1065.53,19.065,800.126,19.065z
		 M1078.156,777.777v65.152c-161.616,131.439-394.318,131.439-556.187,0v-65.152h-65.151
		c-131.692-161.868-131.439-395.328,0.631-557.07h65.53v-65.151C684.596,25,916.667,25.505,1078.03,156.439v65.151h65.151
		c131.439,161.616,131.439,394.318,0,555.935h-65.025V777.777L1078.156,777.777z"/>
	<path fill="#FFFFFF" d="M455.809,499.874c2.903,4.166,4.671,7.702,7.322,10.479c37.248,37.5,74.622,74.747,111.995,112.121
		c71.212,71.339,142.425,142.677,213.511,214.016c6.061,6.061,8.712,6.187,15.908,1.641c1.895-1.136,3.662-2.651,5.178-4.166
		c8.838-8.712,17.676-17.298,26.515-26.137c98.737-98.863,197.475-197.854,296.339-296.717c7.323-7.323,8.586-11.111,0.505-21.086
		c-1.263-1.516-2.778-2.904-4.167-4.419c-49.368-49.369-98.863-98.864-148.232-148.232
		c-56.061-56.313-112.121-112.626-168.308-168.813c-13.258-13.258-15.657-13.005-29.041,0.379
		c-48.737,48.737-97.475,97.349-146.085,146.212c-34.976,35.102-69.697,70.455-104.672,105.556
		c-22.854,22.854-46.086,45.202-68.939,68.056C460.732,491.667,458.712,495.581,455.809,499.874z"/>
	<path fill="#010101" d="M455.809,499.874c2.903-4.293,4.924-8.207,7.828-11.237c22.854-22.728,46.086-45.202,68.939-68.056
		c34.975-35.102,69.696-70.455,104.672-105.556c48.61-48.737,97.348-97.475,146.085-146.212
		c13.384-13.384,15.783-13.51,29.041-0.378c56.187,56.187,112.247,112.374,168.308,168.687
		c49.369,49.495,98.863,98.863,148.232,148.232c1.389,1.389,2.904,2.777,4.167,4.419c8.081,9.975,6.944,13.763-0.505,21.086
		c-98.864,98.737-197.602,197.728-296.339,296.718c-8.712,8.712-17.551,17.424-26.515,26.136c-1.642,1.516-3.283,3.03-5.178,4.167
		c-7.322,4.545-9.975,4.293-15.908-1.642c-71.086-71.212-142.299-142.551-213.384-213.763
		c-37.374-37.374-74.748-74.747-111.995-112.121C460.606,507.576,458.712,504.04,455.809,499.874z M472.854,500.253
		c1.642,1.894,2.525,2.903,3.535,3.914c56.692,56.691,113.384,113.51,169.949,170.202c48.738,48.863,97.602,97.727,146.213,146.591
		c3.787,3.787,6.312,4.545,10.479,0.378c105.429-105.682,210.985-211.363,316.54-316.919c1.011-1.01,1.768-2.272,3.157-4.166
		C905.809,500.253,689.898,500.253,472.854,500.253z M606.061,363.637c0.379,0.379,0.631,0.884,1.01,1.263
		c1.011-0.506,2.021-1.011,2.904-1.516c30.809-17.551,61.742-34.975,92.551-52.651c4.419-2.525,7.576-3.156,12.373,0
		c16.162,10.479,32.829,20.202,49.117,30.429c3.156,1.895,5.176,1.895,8.08-0.126c31.061-20.075,62.248-39.772,93.182-59.975
		c4.672-3.03,7.197-2.146,10.606,1.263c22.854,23.106,45.833,46.086,68.813,69.065c23.358,23.485,46.843,46.844,70.201,70.328
		c3.41,3.409,7.45,6.818,12.248,4.672c3.409-1.515,6.818-4.924,8.459-8.459c2.273-4.799-1.262-8.839-4.671-12.248
		c-75.379-75.505-150.632-150.884-226.011-226.389c-7.07-7.071-7.323-6.944-14.52,0.126
		c-47.349,47.475-94.697,94.95-142.172,142.298C634.344,335.984,620.202,349.747,606.061,363.637z"/>
	<path fill="#FFFFFF" d="M472.854,500.253c217.172,0,433.081,0,650,0c-1.389,1.894-2.146,3.156-3.156,4.166
		c-105.556,105.682-211.111,211.237-316.541,316.919c-4.166,4.167-6.818,3.283-10.479-0.378
		c-48.737-48.99-97.475-97.728-146.212-146.591c-56.692-56.692-113.384-113.511-169.949-170.202
		C475.379,503.283,474.495,502.146,472.854,500.253z M823.484,673.737c-2.398-9.344,3.031-13.637,9.597-17.298
		c1.263-0.632,2.398-1.642,3.535-2.399c24.874-17.929,36.49-41.919,30.177-72.222c-9.975-47.98-66.035-69.571-106.313-41.414
		c-18.812,13.257-28.156,31.818-29.545,54.672c-0.253,5.176,1.01,7.828,7.07,7.322c7.323-0.631,14.646-0.126,21.97-0.126
		c6.439,0,12.879,0,19.318,0c0-2.525,0-4.167,0-5.682c-0.126-9.723,6.061-18.182,15.025-20.454
		c9.722-2.525,19.823,2.272,24.242,11.615c3.914,8.207,1.516,18.435-6.312,24.495c-4.42,3.409-9.471,6.188-14.269,9.344
		c-18.561,12.121-26.894,31.565-22.475,52.399C791.162,673.737,806.691,673.737,823.484,673.737z M828.156,715.404
		c0-16.92-12.879-29.672-29.672-29.546c-16.035,0-29.419,13.258-29.671,29.419c-0.253,16.036,13.51,29.799,29.924,29.925
		C815.277,745.328,828.156,732.197,828.156,715.404z"/>
	<path fill="#FFFFFF" d="M606.061,363.637c14.142-13.89,28.409-27.652,42.424-41.667c47.476-47.349,94.824-94.823,142.172-142.298
		c7.197-7.197,7.45-7.197,14.521-0.126c75.379,75.505,150.632,150.884,226.01,226.389c3.409,3.409,6.944,7.323,4.672,12.247
		c-1.642,3.409-5.05,6.818-8.46,8.46c-4.797,2.146-8.712-1.263-12.247-4.672c-23.358-23.485-46.843-46.844-70.202-70.328
		c-22.979-22.979-45.959-45.96-68.812-69.066c-3.535-3.535-5.935-4.419-10.606-1.263c-30.935,20.202-62.121,39.899-93.182,59.975
		c-3.03,1.894-5.051,2.02-8.081,0.126c-16.288-10.228-32.954-19.949-49.116-30.43c-4.798-3.156-8.081-2.524-12.374,0
		c-30.808,17.678-61.742,35.102-92.55,52.652c-1.011,0.505-2.021,1.01-2.904,1.515C606.818,364.394,606.439,364.016,606.061,363.637
		z"/>
</g>
</svg>
