<?xml version="1.0" encoding="utf-8"?>
<!-- Generator: Adobe Illustrator 18.1.1, SVG Export Plug-In . SVG Version: 6.00 Build 0)  -->
<svg version="1.1" id="Layer_1" xmlns="http://www.w3.org/2000/svg" xmlns:xlink="http://www.w3.org/1999/xlink" x="0px" y="0px"
	 viewBox="0 0 792 792" enable-background="new 0 0 792 792" xml:space="preserve">
<path opacity="0.6" fill="#FFFFFF" enable-background="new    " d="M667.8,616h-51.6v51.6c-128,104.1-312.3,104.1-440.5,0V616h-51.6
	C19.8,487.8,20,302.9,124.6,174.8h51.9v-51.6c128-103.4,311.8-103,439.6,0.7v51.6h51.6C772,303.8,772,488,667.8,616z"/>
<path opacity="0.4" fill="#2C3034" enable-background="new    " d="M396.1,15.1c-210.3,0-380.7,170.4-380.7,380.7
	s170.4,380.7,380.7,380.7s380.6-170.4,380.6-380.7S606.3,15.1,396.1,15.1z M616.3,616v51.6c-128,104.1-312.3,104.1-440.5,0V616
	h-51.6C19.9,487.8,20.1,302.9,124.7,174.8h51.9v-51.6c128-103.4,311.8-103,439.6,0.7v51.6h51.6c104.1,128,104.1,312.3,0,440.3h-51.5
	L616.3,616L616.3,616z"/>
<path fill="#FFFFFF" d="M123.4,395.9c2.3,3.3,3.7,6.1,5.8,8.3c29.5,29.7,59.1,59.2,88.7,88.8c56.4,56.5,112.8,113,169.1,169.5
	c4.8,4.8,6.9,4.9,12.6,1.3c1.5-0.9,2.9-2.1,4.1-3.3c7-6.9,14-13.7,21-20.7c78.2-78.3,156.4-156.7,234.7-235
	c5.8-5.8,6.8-8.8,0.4-16.7c-1-1.2-2.2-2.3-3.3-3.5c-39.1-39.1-78.3-78.3-117.4-117.4c-44.4-44.6-88.8-89.2-133.3-133.7
	c-10.5-10.5-12.4-10.3-23,0.3c-38.6,38.6-77.2,77.1-115.7,115.8c-27.7,27.8-55.2,55.8-82.9,83.6c-18.1,18.1-36.5,35.8-54.6,53.9
	C127.3,389.4,125.7,392.5,123.4,395.9z"/>
<path fill="#010101" d="M123.4,395.9c2.3-3.4,3.9-6.5,6.2-8.9c18.1-18,36.5-35.8,54.6-53.9c27.7-27.8,55.2-55.8,82.9-83.6
	c38.5-38.6,77.1-77.2,115.7-115.8c10.6-10.6,12.5-10.7,23-0.3c44.5,44.5,88.9,89,133.3,133.6c39.1,39.2,78.3,78.3,117.4,117.4
	c1.1,1.1,2.3,2.2,3.3,3.5c6.4,7.9,5.5,10.9-0.4,16.7c-78.3,78.2-156.5,156.6-234.7,235c-6.9,6.9-13.9,13.8-21,20.7
	c-1.3,1.2-2.6,2.4-4.1,3.3c-5.8,3.6-7.9,3.4-12.6-1.3C330.7,605.9,274.3,549.4,218,493c-29.6-29.6-59.2-59.2-88.7-88.8
	C127.2,402,125.7,399.2,123.4,395.9z M136.9,396.2c1.3,1.5,2,2.3,2.8,3.1c44.9,44.9,89.8,89.9,134.6,134.8
	c38.6,38.7,77.3,77.4,115.8,116.1c3,3,5,3.6,8.3,0.3c83.5-83.7,167.1-167.4,250.7-251c0.8-0.8,1.4-1.8,2.5-3.3
	C479.8,396.2,308.8,396.2,136.9,396.2z M242.4,288c0.3,0.3,0.5,0.7,0.8,1c0.8-0.4,1.6-0.8,2.3-1.2c24.4-13.9,48.9-27.7,73.3-41.7
	c3.5-2,6-2.5,9.8,0c12.8,8.3,26,16,38.9,24.1c2.5,1.5,4.1,1.5,6.4-0.1c24.6-15.9,49.3-31.5,73.8-47.5c3.7-2.4,5.7-1.7,8.4,1
	c18.1,18.3,36.3,36.5,54.5,54.7c18.5,18.6,37.1,37.1,55.6,55.7c2.7,2.7,5.9,5.4,9.7,3.7c2.7-1.2,5.4-3.9,6.7-6.7
	c1.8-3.8-1-7-3.7-9.7c-59.7-59.8-119.3-119.5-179-179.3c-5.6-5.6-5.8-5.5-11.5,0.1c-37.5,37.6-75,75.2-112.6,112.7
	C264.8,266.1,253.6,277,242.4,288z"/>
<path fill="#FFFFFF" d="M136.9,396.2c172,0,343,0,514.8,0c-1.1,1.5-1.7,2.5-2.5,3.3c-83.6,83.7-167.2,167.3-250.7,251
	c-3.3,3.3-5.4,2.6-8.3-0.3c-38.6-38.8-77.2-77.4-115.8-116.1c-44.9-44.9-89.8-89.9-134.6-134.8C138.9,398.6,138.2,397.7,136.9,396.2
	z M414.6,533.6c-1.9-7.4,2.4-10.8,7.6-13.7c1-0.5,1.9-1.3,2.8-1.9c19.7-14.2,28.9-33.2,23.9-57.2c-7.9-38-52.3-55.1-84.2-32.8
	c-14.9,10.5-22.3,25.2-23.4,43.3c-0.2,4.1,0.8,6.2,5.6,5.8c5.8-0.5,11.6-0.1,17.4-0.1c5.1,0,10.2,0,15.3,0c0-2,0-3.3,0-4.5
	c-0.1-7.7,4.8-14.4,11.9-16.2c7.7-2,15.7,1.8,19.2,9.2c3.1,6.5,1.2,14.6-5,19.4c-3.5,2.7-7.5,4.9-11.3,7.4
	c-14.7,9.6-21.3,25-17.8,41.5C389,533.6,401.3,533.6,414.6,533.6z M418.3,566.6c0-13.4-10.2-23.5-23.5-23.4
	c-12.7,0-23.3,10.5-23.5,23.3c-0.2,12.7,10.7,23.6,23.7,23.7C408.1,590.3,418.3,579.9,418.3,566.6z"/>
<path fill="#FFFFFF" d="M242.4,288c11.2-11,22.5-21.9,33.6-33c37.6-37.5,75.1-75.1,112.6-112.7c5.7-5.7,5.9-5.7,11.5-0.1
	c59.7,59.8,119.3,119.5,179,179.3c2.7,2.7,5.5,5.8,3.7,9.7c-1.3,2.7-4,5.4-6.7,6.7c-3.8,1.7-6.9-1-9.7-3.7
	c-18.5-18.6-37.1-37.1-55.6-55.7c-18.2-18.2-36.4-36.4-54.5-54.7c-2.8-2.8-4.7-3.5-8.4-1c-24.5,16-49.2,31.6-73.8,47.5
	c-2.4,1.5-4,1.6-6.4,0.1c-12.9-8.1-26.1-15.8-38.9-24.1c-3.8-2.5-6.4-2-9.8,0c-24.4,14-48.9,27.8-73.3,41.7
	c-0.8,0.4-1.6,0.8-2.3,1.2C243,288.6,242.7,288.3,242.4,288z"/>
<path fill="#010101" d="M414.6,533.6c-13.3,0-25.7,0-38,0c-3.6-16.5,3-31.9,17.8-41.5c3.8-2.5,7.7-4.7,11.3-7.4
	c6.2-4.8,8.1-12.8,5-19.4c-3.6-7.4-11.5-11.2-19.2-9.2c-7.1,1.8-11.9,8.5-11.9,16.2c0,1.3,0,2.6,0,4.5c-5.1,0-10.2,0-15.3,0
	c-5.8,0-11.6-0.4-17.4,0.1c-4.8,0.4-5.8-1.7-5.6-5.8c1.1-18.1,8.4-32.9,23.4-43.3c31.9-22.3,76.3-5.2,84.2,32.8
	c5,24.1-4.2,43-23.9,57.2c-0.9,0.7-1.8,1.4-2.8,1.9C417,522.8,412.7,526.2,414.6,533.6z"/>
<path fill="#010101" d="M418.3,566.6c0,13.3-10.3,23.7-23.4,23.6c-12.9-0.1-23.9-11-23.7-23.7c0.2-12.8,10.8-23.3,23.5-23.3
	C408.2,543.2,418.3,553.3,418.3,566.6z"/>
</svg>
