<?xml version="1.0" encoding="utf-8"?>
<!-- Generator: Adobe Illustrator 15.1.0, SVG Export Plug-In . SVG Version: 6.00 Build 0)  -->
<!DOCTYPE svg PUBLIC "-//W3C//DTD SVG 1.1//EN" "http://www.w3.org/Graphics/SVG/1.1/DTD/svg11.dtd">
<svg version="1.1" xmlns="http://www.w3.org/2000/svg" xmlns:xlink="http://www.w3.org/1999/xlink" x="0px" y="0px"
	 width="961.237px" height="961.364px" viewBox="319.444 19.065 961.237 961.364"
	 enable-background="new 319.444 19.065 961.237 961.364" xml:space="preserve">
<g id="Layer_1">
	<path opacity="0.6" fill="#FFFFFF" enable-background="new    " d="M1143.182,777.777h-65.151v65.152
		c-161.616,131.439-394.318,131.439-556.187,0v-65.152h-65.151C325,615.909,325.252,382.449,457.323,220.707h65.53v-65.151
		C684.47,25,916.54,25.505,1077.904,156.439v65.151h65.151C1274.748,383.586,1274.748,616.162,1143.182,777.777z"/>
	<path opacity="0.4" fill="#2C3034" enable-background="new    " d="M800.126,19.065c-265.53,0-480.682,215.152-480.682,480.682
		c0,265.53,215.151,480.683,480.682,480.683s480.556-215.152,480.556-480.683C1280.682,234.217,1065.53,19.065,800.126,19.065z
		 M1078.156,777.777v65.152c-161.616,131.439-394.318,131.439-556.187,0v-65.152h-65.151
		c-131.692-161.868-131.439-395.328,0.631-557.07h65.53v-65.151C684.596,25,916.667,25.505,1078.03,156.439v65.151h65.151
		c131.439,161.616,131.439,394.318,0,555.935h-65.025V777.777L1078.156,777.777z"/>
	<path fill="#FFFFFF" d="M455.809,499.874c2.903,4.166,4.671,7.702,7.322,10.479c37.248,37.5,74.622,74.747,111.995,112.121
		c71.212,71.339,142.425,142.677,213.511,214.016c6.061,6.061,8.712,6.187,15.908,1.641c1.895-1.136,3.662-2.651,5.178-4.166
		c8.838-8.712,17.676-17.298,26.515-26.137c98.737-98.863,197.475-197.854,296.339-296.717c7.323-7.323,8.586-11.111,0.505-21.086
		c-1.263-1.516-2.778-2.904-4.167-4.419c-49.368-49.369-98.863-98.864-148.232-148.232
		c-56.061-56.313-112.121-112.626-168.308-168.813c-13.258-13.258-15.657-13.005-29.041,0.379
		c-48.737,48.737-97.475,97.349-146.085,146.212c-34.976,35.102-69.697,70.455-104.672,105.556
		c-22.854,22.854-46.086,45.202-68.939,68.056C460.732,491.667,458.712,495.581,455.809,499.874z"/>
</g>
<g id="Layer_2">
	<g>
		<g>
			<g>
				<path d="M1221.65,382.416c-3.763,0-7.65,0.767-11.537,1.551c-8.053-26.804-32.401-45.313-60.702-45.313
					c-26.606,0-49.82,16.32-59.211,40.819c-7.048-3.353-14.66-5.464-22.444-5.464c-13.72,0-26.232,5.333-35.637,13.902
					L805.938,161.738c-4.254-4.235-11.136-4.235-15.391,0L459.702,492.576c-2.012,1.991-3.076,4.775-3.076,7.669
					c0,2.896,1.219,5.61,3.287,7.684l330.79,330.855c2.027,1.997,4.783,3.16,7.694,3.16c2.87,0,5.626-1.163,7.694-3.16
					l330.807-330.855c2.094-2.106,3.117-4.839,3.117-7.653h81.635c32.381,0,58.695-26.54,58.695-59.198
					C1280.346,408.746,1254.031,382.416,1221.65,382.416z"/>
			</g>
			<g>
				<path fill="#50B748" d="M473.252,501.121c0.093,0.994,0.493,1.961,1.17,2.715L790.67,819.943l0.139-318.822H473.252z"/>
				<path fill="#EC1C24" d="M804.623,501.121v318.551l316.185-315.836c0.779-0.754,1.136-1.721,1.218-2.715H804.623z"/>
			</g>
			<path fill="#FFFFFF" d="M1221.65,390.182c-4.334,0-8.738,0.638-13.202,1.832l-3.876,1.014l-0.933-3.892
				c-6.041-25.104-28.357-42.668-54.229-42.668c-24.582,0-46.052,15.784-53.298,39.268l-1.507,4.658l-4.163-2.483
				c-6.93-3.973-14.78-6.085-22.688-6.085c-16.386,0-30.605,8.831-38.515,21.915l-36.167-36.174l0,0L865.877,240.345
				c0-0.026,0-0.04-0.041-0.059l-45.481-45.528l-10.818-10.793h-0.041l-8.168-8.219c-0.82-0.81-1.956-1.258-3.083-1.258
				c-1.139,0-2.243,0.448-3.076,1.258l-6.125,6.141h-0.031L603.321,367.566l105.777-60.014l77.32,36.417l58.034-44.088
				l144.709,144.726c4.938,5.577,9.845,10.683,12.756,13.528l3.275,3.24c10.804,10.888,30.934,31.151,53.667,31.151h162.791
				c28.08,0,50.906-23.075,50.906-51.448C1272.557,413.047,1249.73,390.182,1221.65,390.182z"/>
			<g>
				<path d="M862.629,286.095l174.102,173.869c2.357,2.371,6.126,2.358,8.481,0c2.299-2.322,2.299-6.1-0.039-8.438L872.112,278.515
					L862.629,286.095z"/>
			</g>
			<path d="M1148.55,438.181c-1.456-9.368-6.718-18.039-17.61-23.288c-9.681-4.66-22.683-5.039-32.027-1.979
				c-7.625,2.483-15.271,8.422-18.669,15.062c-0.246,0.457-0.093,1.079,0.315,1.39c0.486,0.31,1.048,0.23,1.447-0.131
				c12.203-12.479,29.906-13.41,42.446-7.376c15.114,7.294,21.556,19.886,19.087,38.725c-0.082,0.492,0.244,1,0.721,1.146
				c0.53,0.182,1.063-0.067,1.307-0.508C1148.952,454.569,1149.852,446.062,1148.55,438.181z"/>
		</g>
		<g id="yes">
			<path d="M771.184,536.773c2.061,3.903-16.381,17.008-39.976,40.58c-26.613,26.63-59.17,63.993-64.013,67.103
				c-5.252,3.324-12.267,0.822-14.543-2.589c-1.198-1.812-26.462-42.836-26.462-44.486c0-3.404,1.969-6.525,5.921-9.329
				c3.965-2.858,7.999-6.729,11.685-4.932c1.139,0.536,17.139,27.865,21.49,27.807c8.687-0.185,71.903-78.309,84.281-79.49
				C752.396,531.142,767.601,529.633,771.184,536.773z"/>
		</g>
		<g id="no">
			<path d="M956.454,545.134c0.502,5.159-10.542,16.229-17.803,23.934c-7.271,7.699-15.381,17.836-21.898,25.858
				c5.685,5.771,11.467,11.508,17.339,17.249c5.9,5.728,11.926,11.374,18.095,17.011c-0.969,3.422-5.044,7.704-7.081,7.93
				c-0.724,0.656-8.707,11.861-17.316,9.898c0,0-12.169-9.012-16.657-13.715c-4.457-4.692-12.431-11.27-16.767-16.444
				c-6.044,7.159-27.381,26.876-31.981,32.961c0,0-6.987,2.698-16.455-7.12c-1.561-1.587-2.922-3.302-4.029-5.16
				c0.333-0.948-6.384-8.017-1.909-12.697c5.479-5.694,27.24-25.868,33.673-32.668c-6.021-7.92-33.009-42.694-31.235-48.226
				c1.123-3.491,13.553-9.821,16.023-10.386l6.913-1.681c2.853,1.548,26.796,32.398,30.843,36.812
				c7.523-8.056,31.072-33.348,39.45-40.086c1.895,0.669,3.617,1.522,5.154,2.602c1.53,1.081,10.768,8.988,10.768,8.988
				L956.454,545.134z"/>
		</g>
		<g id="thermometer_2" transform="translate(-259.64645,-264.84375)">
			<path id="path3069_4_" fill="#FFFFFF" d="M1283.154,430.184c-8.935,0-16.135,7.188-16.135,16.123v110.48
				c0,0.433,0.028,0.856,0.064,1.28c-6.404,4.861-10.541,12.553-10.541,21.212c0,14.698,11.915,26.612,26.611,26.612
				s26.611-11.914,26.611-26.612c0-8.658-4.139-16.351-10.541-21.212c0.033-0.424,0.054-0.847,0.054-1.28v-110.48
				C1299.278,437.371,1292.089,430.184,1283.154,430.184z"/>
			<g id="g3920_2_" transform="translate(-232.16103,4.7661891)">
				<path id="path3893_2_" fill="#EC1C24" d="M1499.33,452.198v99.673c0,0.433,0.028,0.856,0.062,1.278
					c-6.402,4.861-10.539,12.555-10.539,21.214c0,14.697,11.912,26.609,26.609,26.609c14.698,0,26.611-11.912,26.611-26.609
					c0-8.659-4.137-16.354-10.541-21.214c0.033-0.421,0.053-0.845,0.053-1.278v-99.657L1499.33,452.198z"/>
			</g>
			<path id="path3069_2_" fill="none" stroke="#000000" stroke-width="2" stroke-linejoin="bevel" d="M1283.154,430.184
				c-8.935,0-16.135,7.188-16.135,16.123v110.48c0,0.433,0.028,0.856,0.064,1.28c-6.404,4.861-10.541,12.553-10.541,21.212
				c0,14.698,11.915,26.612,26.611,26.612s26.611-11.914,26.611-26.612c0-8.658-4.139-16.351-10.541-21.212
				c0.033-0.424,0.054-0.847,0.054-1.28v-110.48C1299.278,437.371,1292.089,430.184,1283.154,430.184z"/>
			<path id="path3873_2_" fill="none" stroke="#000000" stroke-width="1.5" d="M1266.899,535.717h19.428"/>
			<path id="path3877_2_" fill="none" stroke="#000000" stroke-width="1.5" d="M1266.899,508.575h19.428"/>
			<path id="path3881_2_" fill="none" stroke="#000000" stroke-width="1.5" d="M1266.899,481.434h19.428"/>
		</g>
		<g id="thermometer_1" transform="translate(-259.64645,-264.84375)">
			<path id="path3069_5_" fill="#FFFFFF" d="M824.624,429.735c-9.055,0-16.347,7.283-16.347,16.335v111.952
				c0,0.439,0.031,0.868,0.059,1.298c-6.487,4.923-10.678,12.72-10.678,21.493c0,14.894,12.072,26.964,26.965,26.964
				c14.892,0,26.963-12.071,26.963-26.964c0-8.773-4.193-16.57-10.678-21.493c0.031-0.431,0.051-0.859,0.051-1.298V446.07
				C840.961,437.018,833.677,429.735,824.624,429.735z"/>
			<g id="g3920_3_" transform="translate(-232.16103,4.7661891)">
				<path id="path3893_3_" fill="#EC1C24" d="M1040.587,517.206v35.896c0,0.44,0.031,0.868,0.062,1.297
					c-6.487,4.925-10.68,12.722-10.68,21.494c0,14.895,12.074,26.966,26.965,26.966s26.963-12.071,26.963-26.966
					c0-8.772-4.193-16.569-10.68-21.494c0.034-0.429,0.054-0.857,0.054-1.297v-35.878L1040.587,517.206z"/>
			</g>
			<path id="path3069_3_" fill="none" stroke="#000000" stroke-width="2" stroke-linejoin="bevel" d="M824.624,429.735
				c-9.055,0-16.347,7.283-16.347,16.335v111.952c0,0.439,0.031,0.868,0.059,1.298c-6.487,4.923-10.678,12.72-10.678,21.493
				c0,14.894,12.072,26.964,26.965,26.964c14.892,0,26.963-12.071,26.963-26.964c0-8.773-4.193-16.57-10.678-21.493
				c0.031-0.431,0.051-0.859,0.051-1.298V446.07C840.961,437.018,833.677,429.735,824.624,429.735z"/>
			<path id="path3873_3_" fill="none" stroke="#000000" stroke-width="1.5" d="M808.154,536.671h19.717"/>
			<path id="path3877_3_" fill="none" stroke="#000000" stroke-width="1.5" d="M808.154,509.169h19.717"/>
			<path id="path3881_3_" fill="none" stroke="#000000" stroke-width="1.5" d="M808.154,481.666h19.717"/>
		</g>
		<polygon id="increase" points="1081.558,179.818 1064.952,216.525 1078.326,216.525 1078.326,275.388 1084.79,275.388 
			1084.79,216.525 1098.169,216.525 		"/>
		<polygon id="decrease" points="504.136,325.29 520.741,288.583 507.367,288.583 507.367,229.72 500.903,229.72 500.903,288.583 
			487.524,288.583 		"/>
	</g>
</g>
</svg>
