<svg version="1.1" id="Layer_1" xmlns="http://www.w3.org/2000/svg" xmlns:xlink="http://www.w3.org/1999/xlink" x="0px" y="0px" width="279.36px" height="99.36px" viewBox="0 0 279.36 99.36" enable-background="new 0 0 279.36 99.36" xml:space="preserve">
<g>
	<path fill="#245EAC" d="M95.031,14.629h3.915l8.094,21.015h-3.944l-1.972-5.563h-8.388l-1.972,5.563h-3.797L95.031,14.629z
		 M93.737,27.286h6.416l-3.149-9.036h-0.088L93.737,27.286z"/>
	<path fill="#245EAC" d="M105.949,20.428h3.65l3.855,11.685h0.059l3.708-11.685h3.473l-5.445,15.217h-3.768L105.949,20.428z"/>
	<path fill="#245EAC" d="M134.879,32.26c0,0.824,0.177,1.147,0.795,1.147c0.206,0,0.47,0,0.824-0.059v2.326
		c-0.5,0.177-1.56,0.383-2.119,0.383c-1.354,0-2.325-0.471-2.59-1.854c-1.325,1.295-3.473,1.854-5.27,1.854
		c-2.736,0-5.209-1.472-5.209-4.445c0-3.797,3.032-4.415,5.858-4.738c2.414-0.441,4.562-0.176,4.562-2.148
		c0-1.737-1.795-2.061-3.149-2.061c-1.884,0-3.209,0.766-3.355,2.414h-3.356c0.236-3.915,3.562-5.063,6.917-5.063
		c2.973,0,6.093,1.207,6.093,4.415V32.26z M131.523,28.021c-1.03,0.677-2.648,0.647-4.121,0.913
		c-1.442,0.235-2.738,0.765-2.738,2.531c0,1.501,1.913,1.943,3.091,1.943c1.472,0,3.767-0.766,3.767-2.885V28.021z"/>
	<path fill="#245EAC" d="M137.997,14.629h3.355v21.015h-3.355V14.629z"/>
	<path fill="#245EAC" d="M157.157,32.26c0,0.824,0.177,1.147,0.795,1.147c0.207,0,0.471,0,0.824-0.059v2.326
		c-0.501,0.177-1.561,0.383-2.119,0.383c-1.354,0-2.325-0.471-2.591-1.854c-1.324,1.295-3.473,1.854-5.269,1.854
		c-2.738,0-5.209-1.472-5.209-4.445c0-3.797,3.031-4.415,5.857-4.738c2.412-0.441,4.561-0.176,4.561-2.148
		c0-1.737-1.795-2.061-3.148-2.061c-1.883,0-3.208,0.766-3.355,2.414h-3.355c0.235-3.915,3.562-5.063,6.918-5.063
		c2.973,0,6.092,1.207,6.092,4.415V32.26z M153.801,28.021c-1.03,0.677-2.648,0.647-4.12,0.913
		c-1.442,0.235-2.737,0.765-2.737,2.531c0,1.501,1.912,1.943,3.09,1.943c1.473,0,3.768-0.766,3.768-2.885V28.021z"/>
	<path fill="#245EAC" d="M160.186,20.428h3.18v2.237l0.059,0.059c1-1.678,2.736-2.708,4.738-2.708c3.297,0,5.387,1.766,5.387,5.18
		v10.449h-3.355v-9.566c-0.059-2.384-1.001-3.414-2.973-3.414c-2.237,0-3.68,1.766-3.68,4.003v8.977h-3.355V20.428z"/>
	<path fill="#245EAC" d="M186.761,25.52c-0.265-1.854-1.618-2.855-3.473-2.855c-1.737,0-4.181,0.912-4.181,5.534
		c0,2.531,1.119,5.209,4.033,5.209c1.942,0,3.297-1.295,3.62-3.473h3.356c-0.619,3.944-3.062,6.123-6.977,6.123
		c-4.768,0-7.388-3.385-7.388-7.859c0-4.592,2.503-8.183,7.507-8.183c3.531,0,6.533,1.766,6.857,5.504H186.761z"/>
	<path fill="#245EAC" d="M192.263,14.629h3.356v7.8h0.059c0.824-1.383,2.561-2.414,4.563-2.414c3.297,0,5.387,1.766,5.387,5.18
		v10.449h-3.356v-9.566c-0.058-2.384-1.001-3.414-2.972-3.414c-2.238,0-3.68,1.766-3.68,4.003v8.977h-3.356V14.629z"/>
	<path fill="#245EAC" d="M211.186,28.904c0,2.384,1.296,4.503,4.092,4.503c1.943,0,3.12-0.854,3.709-2.531h3.179
		c-0.737,3.326-3.562,5.181-6.888,5.181c-4.768,0-7.447-3.326-7.447-8.006c0-4.327,2.826-8.035,7.359-8.035
		c4.797,0,7.74,4.327,7.182,8.889H211.186z M219.016,26.697c-0.118-2.12-1.561-4.033-3.826-4.033c-2.326,0-3.915,1.766-4.004,4.033
		H219.016z"/>
</g>
<g>
	<path fill="#245EAC" d="M117.276,67.973h14.51v3.18h-10.832v5.504h9.507v3.002h-9.507v9.33h-3.678V67.973z"/>
	<path fill="#245EAC" d="M132.961,81.366c0-4.65,2.796-8.005,7.682-8.005c4.887,0,7.683,3.354,7.683,8.005
		c0,4.68-2.796,8.035-7.683,8.035C135.757,89.401,132.961,86.045,132.961,81.366z M144.969,81.366c0-2.619-1.324-5.357-4.326-5.357
		c-3.001,0-4.327,2.738-4.327,5.357c0,2.649,1.325,5.386,4.327,5.386C143.645,86.751,144.969,84.015,144.969,81.366z"/>
	<path fill="#245EAC" d="M163.893,88.989h-3.297V86.87h-0.059c-0.824,1.53-2.648,2.531-4.326,2.531
		c-3.975,0-5.682-2.002-5.682-5.975v-9.654h3.355v9.33c0,2.678,1.089,3.649,2.914,3.649c2.797,0,3.738-1.795,3.738-4.15v-8.829
		h3.355V88.989z"/>
	<path fill="#245EAC" d="M166.833,73.772h3.179v2.236l0.059,0.06c1.002-1.678,2.738-2.707,4.74-2.707
		c3.295,0,5.385,1.765,5.385,5.179v10.449h-3.354v-9.565c-0.06-2.385-1.001-3.415-2.972-3.415c-2.238,0-3.682,1.767-3.682,4.004
		v8.977h-3.354V73.772z"/>
	<path fill="#245EAC" d="M197.471,88.989h-3.18v-2.061h-0.059c-0.883,1.736-2.796,2.473-4.709,2.473
		c-4.798,0-7.123-3.563-7.123-8.124c0-5.503,3.267-7.916,6.593-7.916c1.913,0,4.032,0.705,5.063,2.383h0.058v-7.771h3.356V88.989z
		 M189.965,86.751c3.002,0,4.268-2.736,4.268-5.386c0-3.355-1.619-5.357-4.209-5.357c-3.148,0-4.268,2.797-4.268,5.533
		C185.756,84.161,187.051,86.751,189.965,86.751z"/>
	<path fill="#245EAC" d="M213.275,85.604c0,0.824,0.175,1.147,0.794,1.147c0.205,0,0.471,0,0.824-0.059v2.325
		c-0.502,0.177-1.56,0.383-2.12,0.383c-1.353,0-2.324-0.471-2.589-1.854c-1.324,1.294-3.474,1.854-5.27,1.854
		c-2.736,0-5.209-1.473-5.209-4.444c0-3.797,3.031-4.415,5.857-4.739c2.413-0.441,4.562-0.176,4.562-2.148
		c0-1.736-1.796-2.061-3.149-2.061c-1.883,0-3.207,0.766-3.355,2.413h-3.355c0.236-3.913,3.563-5.061,6.918-5.061
		c2.972,0,6.093,1.206,6.093,4.414V85.604z M209.918,81.366c-1.031,0.678-2.649,0.646-4.12,0.912
		c-1.442,0.236-2.737,0.766-2.737,2.531c0,1.501,1.913,1.942,3.09,1.942c1.472,0,3.768-0.765,3.768-2.885V81.366z"/>
	<path fill="#245EAC" d="M214.773,73.772h2.532v-4.563h3.354v4.563h3.031v2.502h-3.031v8.123c0,1.383,0.118,2.09,1.618,2.09
		c0.472,0,0.943,0,1.413-0.118v2.591c-0.736,0.059-1.442,0.177-2.179,0.177c-3.502,0-4.148-1.354-4.207-3.886v-8.977h-2.532V73.772z
		"/>
	<path fill="#245EAC" d="M225.603,67.973h3.354v3.18h-3.354V67.973z M225.603,73.772h3.354v15.217h-3.354V73.772z"/>
	<path fill="#245EAC" d="M231.312,81.366c0-4.65,2.796-8.005,7.682-8.005s7.683,3.354,7.683,8.005c0,4.68-2.797,8.035-7.683,8.035
		S231.312,86.045,231.312,81.366z M243.321,81.366c0-2.619-1.324-5.357-4.327-5.357c-3.002,0-4.326,2.738-4.326,5.357
		c0,2.649,1.324,5.386,4.326,5.386C241.997,86.751,243.321,84.015,243.321,81.366z"/>
	<path fill="#245EAC" d="M248.881,73.772h3.178v2.236l0.059,0.06c1.002-1.678,2.738-2.707,4.74-2.707
		c3.296,0,5.386,1.765,5.386,5.179v10.449h-3.355v-9.565c-0.059-2.385-1-3.415-2.972-3.415c-2.238,0-3.681,1.767-3.681,4.004v8.977
		h-3.354V73.772z"/>
</g>
<g>
	<path fill="#E31B23" d="M114.733,47.466c-0.706-3.237-3.384-5.092-6.446-5.092c-5.563,0-7.917,4.651-7.917,9.242
		s2.355,9.242,7.917,9.242c3.886,0,6.358-3.002,6.74-6.739h2.002c-0.56,5.15-3.827,8.447-8.743,8.447
		c-6.622,0-9.918-5.211-9.918-10.95s3.296-10.949,9.918-10.949c3.974,0,7.918,2.384,8.448,6.799H114.733z"/>
	<path fill="#E31B23" d="M118.969,51.587c0.177-3.562,2.678-5.092,6.152-5.092c2.678,0,5.592,0.824,5.592,4.886v8.064
		c0,0.706,0.354,1.118,1.089,1.118c0.206,0,0.441-0.059,0.589-0.117v1.56c-0.413,0.089-0.707,0.117-1.207,0.117
		c-1.885,0-2.178-1.059-2.178-2.648h-0.059c-1.295,1.973-2.62,3.092-5.533,3.092c-2.797,0-5.092-1.385-5.092-4.445
		c0-4.268,4.149-4.415,8.152-4.887c1.531-0.176,2.384-0.383,2.384-2.06c0-2.502-1.795-3.12-3.974-3.12
		c-2.296,0-4.003,1.061-4.062,3.532H118.969z M128.859,53.825H128.8c-0.236,0.441-1.06,0.588-1.56,0.677
		c-3.15,0.559-7.063,0.53-7.063,3.502c0,1.854,1.647,3.003,3.383,3.003c2.826,0,5.329-1.796,5.299-4.768V53.825z"/>
	<path fill="#E31B23" d="M133.801,46.936h1.854v2.62h0.059c0.677-1.825,2.708-3.061,4.857-3.061c4.268,0,5.563,2.236,5.563,5.857
		v9.771h-1.854v-9.477c0-2.62-0.854-4.592-3.855-4.592c-2.943,0-4.71,2.237-4.769,5.209v8.859h-1.854V46.936z"/>
	<path fill="#E31B23" d="M148.869,51.587c0.177-3.562,2.679-5.092,6.152-5.092c2.679,0,5.593,0.824,5.593,4.886v8.064
		c0,0.706,0.352,1.118,1.089,1.118c0.205,0,0.44-0.059,0.588-0.117v1.56c-0.412,0.089-0.706,0.117-1.207,0.117
		c-1.883,0-2.177-1.059-2.177-2.648h-0.06c-1.296,1.973-2.62,3.092-5.534,3.092c-2.795,0-5.092-1.385-5.092-4.445
		c0-4.268,4.15-4.415,8.153-4.887c1.53-0.176,2.384-0.383,2.384-2.06c0-2.502-1.795-3.12-3.973-3.12
		c-2.297,0-4.004,1.061-4.063,3.532H148.869z M158.758,53.825H158.7c-0.235,0.441-1.059,0.588-1.56,0.677
		c-3.149,0.559-7.065,0.53-7.065,3.502c0,1.854,1.65,3.003,3.387,3.003c2.824,0,5.326-1.796,5.297-4.768V53.825z"/>
	<path fill="#E31B23" d="M177.093,62.124h-1.708v-2.883h-0.059c-0.794,1.972-3.208,3.326-5.414,3.326
		c-4.623,0-6.83-3.739-6.83-8.036s2.207-8.035,6.83-8.035c2.266,0,4.473,1.147,5.268,3.326h0.059v-8.712h1.854V62.124z
		 M169.913,61.006c3.943,0,5.326-3.326,5.326-6.476s-1.383-6.476-5.326-6.476c-3.533,0-4.975,3.326-4.975,6.476
		S166.379,61.006,169.913,61.006z"/>
	<path fill="#E31B23" d="M179.858,51.587c0.176-3.562,2.678-5.092,6.15-5.092c2.679,0,5.594,0.824,5.594,4.886v8.064
		c0,0.706,0.354,1.118,1.088,1.118c0.206,0,0.441-0.059,0.59-0.117v1.56c-0.413,0.089-0.707,0.117-1.207,0.117
		c-1.885,0-2.179-1.059-2.179-2.648h-0.059c-1.295,1.973-2.62,3.092-5.533,3.092c-2.797,0-5.092-1.385-5.092-4.445
		c0-4.268,4.149-4.415,8.152-4.887c1.531-0.176,2.384-0.383,2.384-2.06c0-2.502-1.795-3.12-3.973-3.12
		c-2.297,0-4.004,1.061-4.063,3.532H179.858z M189.747,53.825h-0.059c-0.235,0.441-1.061,0.588-1.56,0.677
		c-3.149,0.559-7.063,0.53-7.063,3.502c0,1.854,1.646,3.003,3.383,3.003c2.826,0,5.328-1.796,5.299-4.768V53.825z"/>
</g>
<g>
	<path fill="#245EAC" d="M10.244,90.561h51.443C53.57,75.764,43.648,53.194,39.583,39.61L10.244,90.561z"/>
	<path fill="#245EAC" d="M70.264,90.561C61.917,75.635,49.28,49.29,44.756,30.625l-4.532,7.872
		c3.999,13.135,24.655,46.969,27.68,52.063H70.264z"/>
	<path fill="#245EAC" d="M49.375,22.605l-3.986,6.921c1.787,9.852,17.426,39.591,31.123,61.035h2.352
		C70.496,76.629,54.554,41.303,49.375,22.605z"/>
	<path fill="#245EAC" d="M58.483,6.788l-8.479,14.725c4.135,15.866,22.487,50.022,34.89,69.048h21.827L58.483,6.788z"/>
</g>
</svg>
